<?xml version="1.0" encoding="utf-8" standalone="no"?>
<!DOCTYPE svg PUBLIC "-//W3C//DTD SVG 1.1//EN"
  "http://www.w3.org/Graphics/SVG/1.1/DTD/svg11.dtd">
<svg xmlns:xlink="http://www.w3.org/1999/xlink" width="954.692125pt" height="445.224772pt" viewBox="0 0 954.692125 445.224772" xmlns="http://www.w3.org/2000/svg" version="1.1">
 <metadata>
  <rdf:RDF xmlns:dc="http://purl.org/dc/elements/1.1/" xmlns:cc="http://creativecommons.org/ns#" xmlns:rdf="http://www.w3.org/1999/02/22-rdf-syntax-ns#">
   <cc:Work>
    <dc:type rdf:resource="http://purl.org/dc/dcmitype/StillImage"/>
    <dc:date>2026-08-08T19:21:14.869096</dc:date>
    <dc:format>image/svg+xml</dc:format>
    <dc:creator>
     <cc:Agent>
      <dc:title>Matplotlib v3.10.8, https://matplotlib.org/</dc:title>
     </cc:Agent>
    </dc:creator>
   </cc:Work>
  </rdf:RDF>
 </metadata>
 <defs>
  <style type="text/css">*{stroke-linejoin: round; stroke-linecap: butt}</style>
 </defs>
 <g id="figure_1">
  <g id="patch_1">
   <path d="M 0 445.224772 
L 954.692125 445.224772 
L 954.692125 0 
L 0 0 
z
" style="fill: #ffffff"/>
  </g>
  <g id="axes_1">
   <g id="patch_2">
    <path d="M 57.628125 304.917495 
L 947.492125 304.917495 
L 947.492125 22.318125 
L 57.628125 22.318125 
z
" style="fill: #ffffff"/>
   </g>
   <g id="patch_3">
    <path d="M 98.076489 304.917495 
L 130.762035 304.917495 
L 130.762035 289.488561 
L 98.076489 289.488561 
z
" clip-path="url(#p0e15f2b757)" style="fill: #2ca02c; opacity: 0.95"/>
   </g>
   <g id="patch_4">
    <path d="M 138.933422 304.917495 
L 171.618968 304.917495 
L 171.618968 242.705971 
L 138.933422 242.705971 
z
" clip-path="url(#p0e15f2b757)" style="fill: #2ca02c; opacity: 0.95"/>
   </g>
   <g id="patch_5">
    <path d="M 179.790355 304.917495 
L 212.475901 304.917495 
L 212.475901 241.367342 
L 179.790355 241.367342 
z
" clip-path="url(#p0e15f2b757)" style="fill: #ff7f0e; opacity: 0.95"/>
   </g>
   <g id="patch_6">
    <path d="M 220.647288 304.917495 
L 253.332834 304.917495 
L 253.332834 236.75651 
L 220.647288 236.75651 
z
" clip-path="url(#p0e15f2b757)" style="fill: #ff7f0e; opacity: 0.95"/>
   </g>
   <g id="patch_7">
    <path d="M 261.504221 304.917495 
L 294.189767 304.917495 
L 294.189767 233.385149 
L 261.504221 233.385149 
z
" clip-path="url(#p0e15f2b757)" style="fill: #ff7f0e; opacity: 0.95"/>
   </g>
   <g id="patch_8">
    <path d="M 302.361153 304.917495 
L 335.0467 304.917495 
L 335.0467 230.727724 
L 302.361153 230.727724 
z
" clip-path="url(#p0e15f2b757)" style="fill: #ff7f0e; opacity: 0.95"/>
   </g>
   <g id="patch_9">
    <path d="M 343.218086 304.917495 
L 375.903633 304.917495 
L 375.903633 216.716744 
L 343.218086 216.716744 
z
" clip-path="url(#p0e15f2b757)" style="fill: #ff7f0e; opacity: 0.95"/>
   </g>
   <g id="patch_10">
    <path d="M 384.075019 304.917495 
L 416.760566 304.917495 
L 416.760566 211.967092 
L 384.075019 211.967092 
z
" clip-path="url(#p0e15f2b757)" style="fill: #ff7f0e; opacity: 0.95"/>
   </g>
   <g id="patch_11">
    <path d="M 424.931952 304.917495 
L 457.617499 304.917495 
L 457.617499 208.357752 
L 424.931952 208.357752 
z
" clip-path="url(#p0e15f2b757)" style="fill: #ff7f0e; opacity: 0.95"/>
   </g>
   <g id="patch_12">
    <path d="M 465.788885 304.917495 
L 498.474432 304.917495 
L 498.474432 188.714617 
L 465.788885 188.714617 
z
" clip-path="url(#p0e15f2b757)" style="fill: #9467bd; opacity: 0.95"/>
   </g>
   <g id="patch_13">
    <path d="M 506.645818 304.917495 
L 539.331365 304.917495 
L 539.331365 172.343685 
L 506.645818 172.343685 
z
" clip-path="url(#p0e15f2b757)" style="fill: #9467bd; opacity: 0.95"/>
   </g>
   <g id="patch_14">
    <path d="M 547.502751 304.917495 
L 580.188298 304.917495 
L 580.188298 165.134922 
L 547.502751 165.134922 
z
" clip-path="url(#p0e15f2b757)" style="fill: #9467bd; opacity: 0.95"/>
   </g>
   <g id="patch_15">
    <path d="M 588.359684 304.917495 
L 621.045231 304.917495 
L 621.045231 164.510229 
L 588.359684 164.510229 
z
" clip-path="url(#p0e15f2b757)" style="fill: #9467bd; opacity: 0.95"/>
   </g>
   <g id="patch_16">
    <path d="M 629.216617 304.917495 
L 661.902164 304.917495 
L 661.902164 150.876049 
L 629.216617 150.876049 
z
" clip-path="url(#p0e15f2b757)" style="fill: #9467bd; opacity: 0.95"/>
   </g>
   <g id="patch_17">
    <path d="M 670.07355 304.917495 
L 702.759097 304.917495 
L 702.759097 148.000476 
L 670.07355 148.000476 
z
" clip-path="url(#p0e15f2b757)" style="fill: #9467bd; opacity: 0.95"/>
   </g>
   <g id="patch_18">
    <path d="M 710.930483 304.917495 
L 743.616029 304.917495 
L 743.616029 136.230461 
L 710.930483 136.230461 
z
" clip-path="url(#p0e15f2b757)" style="fill: #9467bd; opacity: 0.95"/>
   </g>
   <g id="patch_19">
    <path d="M 751.787416 304.917495 
L 784.472962 304.917495 
L 784.472962 95.91295 
L 751.787416 95.91295 
z
" clip-path="url(#p0e15f2b757)" style="fill: #9467bd; opacity: 0.95"/>
   </g>
   <g id="patch_20">
    <path d="M 792.644349 304.917495 
L 825.329895 304.917495 
L 825.329895 95.744382 
L 792.644349 95.744382 
z
" clip-path="url(#p0e15f2b757)" style="fill: #9467bd; opacity: 0.95"/>
   </g>
   <g id="patch_21">
    <path d="M 833.501282 304.917495 
L 866.186828 304.917495 
L 866.186828 81.683824 
L 833.501282 81.683824 
z
" clip-path="url(#p0e15f2b757)" style="fill: #9467bd; opacity: 0.95"/>
   </g>
   <g id="patch_22">
    <path d="M 874.358215 304.917495 
L 907.043761 304.917495 
L 907.043761 78.837999 
L 874.358215 78.837999 
z
" clip-path="url(#p0e15f2b757)" style="fill: #9467bd; opacity: 0.95"/>
   </g>
   <g id="matplotlib.axis_1">
    <g id="xtick_1">
     <g id="line2d_1">
      <defs>
       <path id="m3fadbbab65" d="M 0 0 
L 0 3.5 
" style="stroke: #000000; stroke-width: 0.8"/>
      </defs>
      <g>
       <use xlink:href="#m3fadbbab65" x="114.419262" y="304.917495" style="stroke: #000000; stroke-width: 0.8"/>
      </g>
     </g>
     <g id="text_1">
      <!-- gr sin2 n3 / mean x -->
      <g transform="translate(71.37801 403.388951) rotate(-65) scale(0.1 -0.1)">
       <defs>
        <path id="DejaVuSans-67" d="M 2906 1791 
Q 2906 2416 2648 2759 
Q 2391 3103 1925 3103 
Q 1463 3103 1205 2759 
Q 947 2416 947 1791 
Q 947 1169 1205 825 
Q 1463 481 1925 481 
Q 2391 481 2648 825 
Q 2906 1169 2906 1791 
z
M 3481 434 
Q 3481 -459 3084 -895 
Q 2688 -1331 1869 -1331 
Q 1566 -1331 1297 -1286 
Q 1028 -1241 775 -1147 
L 775 -588 
Q 1028 -725 1275 -790 
Q 1522 -856 1778 -856 
Q 2344 -856 2625 -561 
Q 2906 -266 2906 331 
L 2906 616 
Q 2728 306 2450 153 
Q 2172 0 1784 0 
Q 1141 0 747 490 
Q 353 981 353 1791 
Q 353 2603 747 3093 
Q 1141 3584 1784 3584 
Q 2172 3584 2450 3431 
Q 2728 3278 2906 2969 
L 2906 3500 
L 3481 3500 
L 3481 434 
z
" transform="scale(0.015625)"/>
        <path id="DejaVuSans-72" d="M 2631 2963 
Q 2534 3019 2420 3045 
Q 2306 3072 2169 3072 
Q 1681 3072 1420 2755 
Q 1159 2438 1159 1844 
L 1159 0 
L 581 0 
L 581 3500 
L 1159 3500 
L 1159 2956 
Q 1341 3275 1631 3429 
Q 1922 3584 2338 3584 
Q 2397 3584 2469 3576 
Q 2541 3569 2628 3553 
L 2631 2963 
z
" transform="scale(0.015625)"/>
        <path id="DejaVuSans-20" transform="scale(0.015625)"/>
        <path id="DejaVuSans-73" d="M 2834 3397 
L 2834 2853 
Q 2591 2978 2328 3040 
Q 2066 3103 1784 3103 
Q 1356 3103 1142 2972 
Q 928 2841 928 2578 
Q 928 2378 1081 2264 
Q 1234 2150 1697 2047 
L 1894 2003 
Q 2506 1872 2764 1633 
Q 3022 1394 3022 966 
Q 3022 478 2636 193 
Q 2250 -91 1575 -91 
Q 1294 -91 989 -36 
Q 684 19 347 128 
L 347 722 
Q 666 556 975 473 
Q 1284 391 1588 391 
Q 1994 391 2212 530 
Q 2431 669 2431 922 
Q 2431 1156 2273 1281 
Q 2116 1406 1581 1522 
L 1381 1569 
Q 847 1681 609 1914 
Q 372 2147 372 2553 
Q 372 3047 722 3315 
Q 1072 3584 1716 3584 
Q 2034 3584 2315 3537 
Q 2597 3491 2834 3397 
z
" transform="scale(0.015625)"/>
        <path id="DejaVuSans-69" d="M 603 3500 
L 1178 3500 
L 1178 0 
L 603 0 
L 603 3500 
z
M 603 4863 
L 1178 4863 
L 1178 4134 
L 603 4134 
L 603 4863 
z
" transform="scale(0.015625)"/>
        <path id="DejaVuSans-6e" d="M 3513 2113 
L 3513 0 
L 2938 0 
L 2938 2094 
Q 2938 2591 2744 2837 
Q 2550 3084 2163 3084 
Q 1697 3084 1428 2787 
Q 1159 2491 1159 1978 
L 1159 0 
L 581 0 
L 581 3500 
L 1159 3500 
L 1159 2956 
Q 1366 3272 1645 3428 
Q 1925 3584 2291 3584 
Q 2894 3584 3203 3211 
Q 3513 2838 3513 2113 
z
" transform="scale(0.015625)"/>
        <path id="DejaVuSans-32" d="M 1228 531 
L 3431 531 
L 3431 0 
L 469 0 
L 469 531 
Q 828 903 1448 1529 
Q 2069 2156 2228 2338 
Q 2531 2678 2651 2914 
Q 2772 3150 2772 3378 
Q 2772 3750 2511 3984 
Q 2250 4219 1831 4219 
Q 1534 4219 1204 4116 
Q 875 4013 500 3803 
L 500 4441 
Q 881 4594 1212 4672 
Q 1544 4750 1819 4750 
Q 2544 4750 2975 4387 
Q 3406 4025 3406 3419 
Q 3406 3131 3298 2873 
Q 3191 2616 2906 2266 
Q 2828 2175 2409 1742 
Q 1991 1309 1228 531 
z
" transform="scale(0.015625)"/>
        <path id="DejaVuSans-33" d="M 2597 2516 
Q 3050 2419 3304 2112 
Q 3559 1806 3559 1356 
Q 3559 666 3084 287 
Q 2609 -91 1734 -91 
Q 1441 -91 1130 -33 
Q 819 25 488 141 
L 488 750 
Q 750 597 1062 519 
Q 1375 441 1716 441 
Q 2309 441 2620 675 
Q 2931 909 2931 1356 
Q 2931 1769 2642 2001 
Q 2353 2234 1838 2234 
L 1294 2234 
L 1294 2753 
L 1863 2753 
Q 2328 2753 2575 2939 
Q 2822 3125 2822 3475 
Q 2822 3834 2567 4026 
Q 2313 4219 1838 4219 
Q 1578 4219 1281 4162 
Q 984 4106 628 3988 
L 628 4550 
Q 988 4650 1302 4700 
Q 1616 4750 1894 4750 
Q 2613 4750 3031 4423 
Q 3450 4097 3450 3541 
Q 3450 3153 3228 2886 
Q 3006 2619 2597 2516 
z
" transform="scale(0.015625)"/>
        <path id="DejaVuSans-2f" d="M 1625 4666 
L 2156 4666 
L 531 -594 
L 0 -594 
L 1625 4666 
z
" transform="scale(0.015625)"/>
        <path id="DejaVuSans-6d" d="M 3328 2828 
Q 3544 3216 3844 3400 
Q 4144 3584 4550 3584 
Q 5097 3584 5394 3201 
Q 5691 2819 5691 2113 
L 5691 0 
L 5113 0 
L 5113 2094 
Q 5113 2597 4934 2840 
Q 4756 3084 4391 3084 
Q 3944 3084 3684 2787 
Q 3425 2491 3425 1978 
L 3425 0 
L 2847 0 
L 2847 2094 
Q 2847 2600 2669 2842 
Q 2491 3084 2119 3084 
Q 1678 3084 1418 2786 
Q 1159 2488 1159 1978 
L 1159 0 
L 581 0 
L 581 3500 
L 1159 3500 
L 1159 2956 
Q 1356 3278 1631 3431 
Q 1906 3584 2284 3584 
Q 2666 3584 2933 3390 
Q 3200 3197 3328 2828 
z
" transform="scale(0.015625)"/>
        <path id="DejaVuSans-65" d="M 3597 1894 
L 3597 1613 
L 953 1613 
Q 991 1019 1311 708 
Q 1631 397 2203 397 
Q 2534 397 2845 478 
Q 3156 559 3463 722 
L 3463 178 
Q 3153 47 2828 -22 
Q 2503 -91 2169 -91 
Q 1331 -91 842 396 
Q 353 884 353 1716 
Q 353 2575 817 3079 
Q 1281 3584 2069 3584 
Q 2775 3584 3186 3129 
Q 3597 2675 3597 1894 
z
M 3022 2063 
Q 3016 2534 2758 2815 
Q 2500 3097 2075 3097 
Q 1594 3097 1305 2825 
Q 1016 2553 972 2059 
L 3022 2063 
z
" transform="scale(0.015625)"/>
        <path id="DejaVuSans-61" d="M 2194 1759 
Q 1497 1759 1228 1600 
Q 959 1441 959 1056 
Q 959 750 1161 570 
Q 1363 391 1709 391 
Q 2188 391 2477 730 
Q 2766 1069 2766 1631 
L 2766 1759 
L 2194 1759 
z
M 3341 1997 
L 3341 0 
L 2766 0 
L 2766 531 
Q 2569 213 2275 61 
Q 1981 -91 1556 -91 
Q 1019 -91 701 211 
Q 384 513 384 1019 
Q 384 1609 779 1909 
Q 1175 2209 1959 2209 
L 2766 2209 
L 2766 2266 
Q 2766 2663 2505 2880 
Q 2244 3097 1772 3097 
Q 1472 3097 1187 3025 
Q 903 2953 641 2809 
L 641 3341 
Q 956 3463 1253 3523 
Q 1550 3584 1831 3584 
Q 2591 3584 2966 3190 
Q 3341 2797 3341 1997 
z
" transform="scale(0.015625)"/>
        <path id="DejaVuSans-78" d="M 3513 3500 
L 2247 1797 
L 3578 0 
L 2900 0 
L 1881 1375 
L 863 0 
L 184 0 
L 1544 1831 
L 300 3500 
L 978 3500 
L 1906 2253 
L 2834 3500 
L 3513 3500 
z
" transform="scale(0.015625)"/>
       </defs>
       <use xlink:href="#DejaVuSans-67"/>
       <use xlink:href="#DejaVuSans-72" transform="translate(63.476562 0)"/>
       <use xlink:href="#DejaVuSans-20" transform="translate(104.589844 0)"/>
       <use xlink:href="#DejaVuSans-73" transform="translate(136.376953 0)"/>
       <use xlink:href="#DejaVuSans-69" transform="translate(188.476562 0)"/>
       <use xlink:href="#DejaVuSans-6e" transform="translate(216.259766 0)"/>
       <use xlink:href="#DejaVuSans-32" transform="translate(279.638672 0)"/>
       <use xlink:href="#DejaVuSans-20" transform="translate(343.261719 0)"/>
       <use xlink:href="#DejaVuSans-6e" transform="translate(375.048828 0)"/>
       <use xlink:href="#DejaVuSans-33" transform="translate(438.427734 0)"/>
       <use xlink:href="#DejaVuSans-20" transform="translate(502.050781 0)"/>
       <use xlink:href="#DejaVuSans-2f" transform="translate(533.837891 0)"/>
       <use xlink:href="#DejaVuSans-20" transform="translate(567.529297 0)"/>
       <use xlink:href="#DejaVuSans-6d" transform="translate(599.316406 0)"/>
       <use xlink:href="#DejaVuSans-65" transform="translate(696.728516 0)"/>
       <use xlink:href="#DejaVuSans-61" transform="translate(758.251953 0)"/>
       <use xlink:href="#DejaVuSans-6e" transform="translate(819.53125 0)"/>
       <use xlink:href="#DejaVuSans-20" transform="translate(882.910156 0)"/>
       <use xlink:href="#DejaVuSans-78" transform="translate(914.697266 0)"/>
      </g>
     </g>
    </g>
    <g id="xtick_2">
     <g id="line2d_2">
      <g>
       <use xlink:href="#m3fadbbab65" x="155.276195" y="304.917495" style="stroke: #000000; stroke-width: 0.8"/>
      </g>
     </g>
     <g id="text_2">
      <!-- gr affine n4 / sin pi x -->
      <g transform="translate(109.690649 408.845207) rotate(-65) scale(0.1 -0.1)">
       <defs>
        <path id="DejaVuSans-66" d="M 2375 4863 
L 2375 4384 
L 1825 4384 
Q 1516 4384 1395 4259 
Q 1275 4134 1275 3809 
L 1275 3500 
L 2222 3500 
L 2222 3053 
L 1275 3053 
L 1275 0 
L 697 0 
L 697 3053 
L 147 3053 
L 147 3500 
L 697 3500 
L 697 3744 
Q 697 4328 969 4595 
Q 1241 4863 1831 4863 
L 2375 4863 
z
" transform="scale(0.015625)"/>
        <path id="DejaVuSans-34" d="M 2419 4116 
L 825 1625 
L 2419 1625 
L 2419 4116 
z
M 2253 4666 
L 3047 4666 
L 3047 1625 
L 3713 1625 
L 3713 1100 
L 3047 1100 
L 3047 0 
L 2419 0 
L 2419 1100 
L 313 1100 
L 313 1709 
L 2253 4666 
z
" transform="scale(0.015625)"/>
        <path id="DejaVuSans-70" d="M 1159 525 
L 1159 -1331 
L 581 -1331 
L 581 3500 
L 1159 3500 
L 1159 2969 
Q 1341 3281 1617 3432 
Q 1894 3584 2278 3584 
Q 2916 3584 3314 3078 
Q 3713 2572 3713 1747 
Q 3713 922 3314 415 
Q 2916 -91 2278 -91 
Q 1894 -91 1617 61 
Q 1341 213 1159 525 
z
M 3116 1747 
Q 3116 2381 2855 2742 
Q 2594 3103 2138 3103 
Q 1681 3103 1420 2742 
Q 1159 2381 1159 1747 
Q 1159 1113 1420 752 
Q 1681 391 2138 391 
Q 2594 391 2855 752 
Q 3116 1113 3116 1747 
z
" transform="scale(0.015625)"/>
       </defs>
       <use xlink:href="#DejaVuSans-67"/>
       <use xlink:href="#DejaVuSans-72" transform="translate(63.476562 0)"/>
       <use xlink:href="#DejaVuSans-20" transform="translate(104.589844 0)"/>
       <use xlink:href="#DejaVuSans-61" transform="translate(136.376953 0)"/>
       <use xlink:href="#DejaVuSans-66" transform="translate(197.65625 0)"/>
       <use xlink:href="#DejaVuSans-66" transform="translate(232.861328 0)"/>
       <use xlink:href="#DejaVuSans-69" transform="translate(268.066406 0)"/>
       <use xlink:href="#DejaVuSans-6e" transform="translate(295.849609 0)"/>
       <use xlink:href="#DejaVuSans-65" transform="translate(359.228516 0)"/>
       <use xlink:href="#DejaVuSans-20" transform="translate(420.751953 0)"/>
       <use xlink:href="#DejaVuSans-6e" transform="translate(452.539062 0)"/>
       <use xlink:href="#DejaVuSans-34" transform="translate(515.917969 0)"/>
       <use xlink:href="#DejaVuSans-20" transform="translate(579.541016 0)"/>
       <use xlink:href="#DejaVuSans-2f" transform="translate(611.328125 0)"/>
       <use xlink:href="#DejaVuSans-20" transform="translate(645.019531 0)"/>
       <use xlink:href="#DejaVuSans-73" transform="translate(676.806641 0)"/>
       <use xlink:href="#DejaVuSans-69" transform="translate(728.90625 0)"/>
       <use xlink:href="#DejaVuSans-6e" transform="translate(756.689453 0)"/>
       <use xlink:href="#DejaVuSans-20" transform="translate(820.068359 0)"/>
       <use xlink:href="#DejaVuSans-70" transform="translate(851.855469 0)"/>
       <use xlink:href="#DejaVuSans-69" transform="translate(915.332031 0)"/>
       <use xlink:href="#DejaVuSans-20" transform="translate(943.115234 0)"/>
       <use xlink:href="#DejaVuSans-78" transform="translate(974.902344 0)"/>
      </g>
     </g>
    </g>
    <g id="xtick_3">
     <g id="line2d_3">
      <g>
       <use xlink:href="#m3fadbbab65" x="196.133128" y="304.917495" style="stroke: #000000; stroke-width: 0.8"/>
      </g>
     </g>
     <g id="text_3">
      <!-- gr sin2 n3 / call x -->
      <g transform="translate(147.66663 393.259545) rotate(-65) scale(0.1 -0.1)">
       <defs>
        <path id="DejaVuSans-63" d="M 3122 3366 
L 3122 2828 
Q 2878 2963 2633 3030 
Q 2388 3097 2138 3097 
Q 1578 3097 1268 2742 
Q 959 2388 959 1747 
Q 959 1106 1268 751 
Q 1578 397 2138 397 
Q 2388 397 2633 464 
Q 2878 531 3122 666 
L 3122 134 
Q 2881 22 2623 -34 
Q 2366 -91 2075 -91 
Q 1284 -91 818 406 
Q 353 903 353 1747 
Q 353 2603 823 3093 
Q 1294 3584 2113 3584 
Q 2378 3584 2631 3529 
Q 2884 3475 3122 3366 
z
" transform="scale(0.015625)"/>
        <path id="DejaVuSans-6c" d="M 603 4863 
L 1178 4863 
L 1178 0 
L 603 0 
L 603 4863 
z
" transform="scale(0.015625)"/>
       </defs>
       <use xlink:href="#DejaVuSans-67"/>
       <use xlink:href="#DejaVuSans-72" transform="translate(63.476562 0)"/>
       <use xlink:href="#DejaVuSans-20" transform="translate(104.589844 0)"/>
       <use xlink:href="#DejaVuSans-73" transform="translate(136.376953 0)"/>
       <use xlink:href="#DejaVuSans-69" transform="translate(188.476562 0)"/>
       <use xlink:href="#DejaVuSans-6e" transform="translate(216.259766 0)"/>
       <use xlink:href="#DejaVuSans-32" transform="translate(279.638672 0)"/>
       <use xlink:href="#DejaVuSans-20" transform="translate(343.261719 0)"/>
       <use xlink:href="#DejaVuSans-6e" transform="translate(375.048828 0)"/>
       <use xlink:href="#DejaVuSans-33" transform="translate(438.427734 0)"/>
       <use xlink:href="#DejaVuSans-20" transform="translate(502.050781 0)"/>
       <use xlink:href="#DejaVuSans-2f" transform="translate(533.837891 0)"/>
       <use xlink:href="#DejaVuSans-20" transform="translate(567.529297 0)"/>
       <use xlink:href="#DejaVuSans-63" transform="translate(599.316406 0)"/>
       <use xlink:href="#DejaVuSans-61" transform="translate(654.296875 0)"/>
       <use xlink:href="#DejaVuSans-6c" transform="translate(715.576172 0)"/>
       <use xlink:href="#DejaVuSans-6c" transform="translate(743.359375 0)"/>
       <use xlink:href="#DejaVuSans-20" transform="translate(771.142578 0)"/>
       <use xlink:href="#DejaVuSans-78" transform="translate(802.929688 0)"/>
      </g>
      <!-- minus half -->
      <g transform="translate(172.126206 367.302098) rotate(-65) scale(0.1 -0.1)">
       <defs>
        <path id="DejaVuSans-75" d="M 544 1381 
L 544 3500 
L 1119 3500 
L 1119 1403 
Q 1119 906 1312 657 
Q 1506 409 1894 409 
Q 2359 409 2629 706 
Q 2900 1003 2900 1516 
L 2900 3500 
L 3475 3500 
L 3475 0 
L 2900 0 
L 2900 538 
Q 2691 219 2414 64 
Q 2138 -91 1772 -91 
Q 1169 -91 856 284 
Q 544 659 544 1381 
z
M 1991 3584 
L 1991 3584 
z
" transform="scale(0.015625)"/>
        <path id="DejaVuSans-68" d="M 3513 2113 
L 3513 0 
L 2938 0 
L 2938 2094 
Q 2938 2591 2744 2837 
Q 2550 3084 2163 3084 
Q 1697 3084 1428 2787 
Q 1159 2491 1159 1978 
L 1159 0 
L 581 0 
L 581 4863 
L 1159 4863 
L 1159 2956 
Q 1366 3272 1645 3428 
Q 1925 3584 2291 3584 
Q 2894 3584 3203 3211 
Q 3513 2838 3513 2113 
z
" transform="scale(0.015625)"/>
       </defs>
       <use xlink:href="#DejaVuSans-6d"/>
       <use xlink:href="#DejaVuSans-69" transform="translate(97.412109 0)"/>
       <use xlink:href="#DejaVuSans-6e" transform="translate(125.195312 0)"/>
       <use xlink:href="#DejaVuSans-75" transform="translate(188.574219 0)"/>
       <use xlink:href="#DejaVuSans-73" transform="translate(251.953125 0)"/>
       <use xlink:href="#DejaVuSans-20" transform="translate(304.052734 0)"/>
       <use xlink:href="#DejaVuSans-68" transform="translate(335.839844 0)"/>
       <use xlink:href="#DejaVuSans-61" transform="translate(399.21875 0)"/>
       <use xlink:href="#DejaVuSans-6c" transform="translate(460.498047 0)"/>
       <use xlink:href="#DejaVuSans-66" transform="translate(488.28125 0)"/>
      </g>
     </g>
    </g>
    <g id="xtick_4">
     <g id="line2d_4">
      <g>
       <use xlink:href="#m3fadbbab65" x="236.990061" y="304.917495" style="stroke: #000000; stroke-width: 0.8"/>
      </g>
     </g>
     <g id="text_4">
      <!-- gr sin2 n3 / second -->
      <g transform="translate(184.556895 401.766094) rotate(-65) scale(0.1 -0.1)">
       <defs>
        <path id="DejaVuSans-6f" d="M 1959 3097 
Q 1497 3097 1228 2736 
Q 959 2375 959 1747 
Q 959 1119 1226 758 
Q 1494 397 1959 397 
Q 2419 397 2687 759 
Q 2956 1122 2956 1747 
Q 2956 2369 2687 2733 
Q 2419 3097 1959 3097 
z
M 1959 3584 
Q 2709 3584 3137 3096 
Q 3566 2609 3566 1747 
Q 3566 888 3137 398 
Q 2709 -91 1959 -91 
Q 1206 -91 779 398 
Q 353 888 353 1747 
Q 353 2609 779 3096 
Q 1206 3584 1959 3584 
z
" transform="scale(0.015625)"/>
        <path id="DejaVuSans-64" d="M 2906 2969 
L 2906 4863 
L 3481 4863 
L 3481 0 
L 2906 0 
L 2906 525 
Q 2725 213 2448 61 
Q 2172 -91 1784 -91 
Q 1150 -91 751 415 
Q 353 922 353 1747 
Q 353 2572 751 3078 
Q 1150 3584 1784 3584 
Q 2172 3584 2448 3432 
Q 2725 3281 2906 2969 
z
M 947 1747 
Q 947 1113 1208 752 
Q 1469 391 1925 391 
Q 2381 391 2643 752 
Q 2906 1113 2906 1747 
Q 2906 2381 2643 2742 
Q 2381 3103 1925 3103 
Q 1469 3103 1208 2742 
Q 947 2381 947 1747 
z
" transform="scale(0.015625)"/>
       </defs>
       <use xlink:href="#DejaVuSans-67"/>
       <use xlink:href="#DejaVuSans-72" transform="translate(63.476562 0)"/>
       <use xlink:href="#DejaVuSans-20" transform="translate(104.589844 0)"/>
       <use xlink:href="#DejaVuSans-73" transform="translate(136.376953 0)"/>
       <use xlink:href="#DejaVuSans-69" transform="translate(188.476562 0)"/>
       <use xlink:href="#DejaVuSans-6e" transform="translate(216.259766 0)"/>
       <use xlink:href="#DejaVuSans-32" transform="translate(279.638672 0)"/>
       <use xlink:href="#DejaVuSans-20" transform="translate(343.261719 0)"/>
       <use xlink:href="#DejaVuSans-6e" transform="translate(375.048828 0)"/>
       <use xlink:href="#DejaVuSans-33" transform="translate(438.427734 0)"/>
       <use xlink:href="#DejaVuSans-20" transform="translate(502.050781 0)"/>
       <use xlink:href="#DejaVuSans-2f" transform="translate(533.837891 0)"/>
       <use xlink:href="#DejaVuSans-20" transform="translate(567.529297 0)"/>
       <use xlink:href="#DejaVuSans-73" transform="translate(599.316406 0)"/>
       <use xlink:href="#DejaVuSans-65" transform="translate(651.416016 0)"/>
       <use xlink:href="#DejaVuSans-63" transform="translate(712.939453 0)"/>
       <use xlink:href="#DejaVuSans-6f" transform="translate(767.919922 0)"/>
       <use xlink:href="#DejaVuSans-6e" transform="translate(829.101562 0)"/>
       <use xlink:href="#DejaVuSans-64" transform="translate(892.480469 0)"/>
      </g>
      <!-- moment x2 -->
      <g transform="translate(210.81722 371.946925) rotate(-65) scale(0.1 -0.1)">
       <defs>
        <path id="DejaVuSans-74" d="M 1172 4494 
L 1172 3500 
L 2356 3500 
L 2356 3053 
L 1172 3053 
L 1172 1153 
Q 1172 725 1289 603 
Q 1406 481 1766 481 
L 2356 481 
L 2356 0 
L 1766 0 
Q 1100 0 847 248 
Q 594 497 594 1153 
L 594 3053 
L 172 3053 
L 172 3500 
L 594 3500 
L 594 4494 
L 1172 4494 
z
" transform="scale(0.015625)"/>
       </defs>
       <use xlink:href="#DejaVuSans-6d"/>
       <use xlink:href="#DejaVuSans-6f" transform="translate(97.412109 0)"/>
       <use xlink:href="#DejaVuSans-6d" transform="translate(158.59375 0)"/>
       <use xlink:href="#DejaVuSans-65" transform="translate(256.005859 0)"/>
       <use xlink:href="#DejaVuSans-6e" transform="translate(317.529297 0)"/>
       <use xlink:href="#DejaVuSans-74" transform="translate(380.908203 0)"/>
       <use xlink:href="#DejaVuSans-20" transform="translate(420.117188 0)"/>
       <use xlink:href="#DejaVuSans-78" transform="translate(451.904297 0)"/>
       <use xlink:href="#DejaVuSans-32" transform="translate(511.083984 0)"/>
      </g>
     </g>
    </g>
    <g id="xtick_5">
     <g id="line2d_5">
      <g>
       <use xlink:href="#m3fadbbab65" x="277.846994" y="304.917495" style="stroke: #000000; stroke-width: 0.8"/>
      </g>
     </g>
     <g id="text_5">
      <!-- gr beta bump n4 / call x -->
      <g transform="translate(215.089396 423.90691) rotate(-65) scale(0.1 -0.1)">
       <defs>
        <path id="DejaVuSans-62" d="M 3116 1747 
Q 3116 2381 2855 2742 
Q 2594 3103 2138 3103 
Q 1681 3103 1420 2742 
Q 1159 2381 1159 1747 
Q 1159 1113 1420 752 
Q 1681 391 2138 391 
Q 2594 391 2855 752 
Q 3116 1113 3116 1747 
z
M 1159 2969 
Q 1341 3281 1617 3432 
Q 1894 3584 2278 3584 
Q 2916 3584 3314 3078 
Q 3713 2572 3713 1747 
Q 3713 922 3314 415 
Q 2916 -91 2278 -91 
Q 1894 -91 1617 61 
Q 1341 213 1159 525 
L 1159 0 
L 581 0 
L 581 4863 
L 1159 4863 
L 1159 2969 
z
" transform="scale(0.015625)"/>
       </defs>
       <use xlink:href="#DejaVuSans-67"/>
       <use xlink:href="#DejaVuSans-72" transform="translate(63.476562 0)"/>
       <use xlink:href="#DejaVuSans-20" transform="translate(104.589844 0)"/>
       <use xlink:href="#DejaVuSans-62" transform="translate(136.376953 0)"/>
       <use xlink:href="#DejaVuSans-65" transform="translate(199.853516 0)"/>
       <use xlink:href="#DejaVuSans-74" transform="translate(261.376953 0)"/>
       <use xlink:href="#DejaVuSans-61" transform="translate(300.585938 0)"/>
       <use xlink:href="#DejaVuSans-20" transform="translate(361.865234 0)"/>
       <use xlink:href="#DejaVuSans-62" transform="translate(393.652344 0)"/>
       <use xlink:href="#DejaVuSans-75" transform="translate(457.128906 0)"/>
       <use xlink:href="#DejaVuSans-6d" transform="translate(520.507812 0)"/>
       <use xlink:href="#DejaVuSans-70" transform="translate(617.919922 0)"/>
       <use xlink:href="#DejaVuSans-20" transform="translate(681.396484 0)"/>
       <use xlink:href="#DejaVuSans-6e" transform="translate(713.183594 0)"/>
       <use xlink:href="#DejaVuSans-34" transform="translate(776.5625 0)"/>
       <use xlink:href="#DejaVuSans-20" transform="translate(840.185547 0)"/>
       <use xlink:href="#DejaVuSans-2f" transform="translate(871.972656 0)"/>
       <use xlink:href="#DejaVuSans-20" transform="translate(905.664062 0)"/>
       <use xlink:href="#DejaVuSans-63" transform="translate(937.451172 0)"/>
       <use xlink:href="#DejaVuSans-61" transform="translate(992.431641 0)"/>
       <use xlink:href="#DejaVuSans-6c" transform="translate(1053.710938 0)"/>
       <use xlink:href="#DejaVuSans-6c" transform="translate(1081.494141 0)"/>
       <use xlink:href="#DejaVuSans-20" transform="translate(1109.277344 0)"/>
       <use xlink:href="#DejaVuSans-78" transform="translate(1141.064453 0)"/>
      </g>
      <!-- minus half -->
      <g transform="translate(253.840072 367.302098) rotate(-65) scale(0.1 -0.1)">
       <use xlink:href="#DejaVuSans-6d"/>
       <use xlink:href="#DejaVuSans-69" transform="translate(97.412109 0)"/>
       <use xlink:href="#DejaVuSans-6e" transform="translate(125.195312 0)"/>
       <use xlink:href="#DejaVuSans-75" transform="translate(188.574219 0)"/>
       <use xlink:href="#DejaVuSans-73" transform="translate(251.953125 0)"/>
       <use xlink:href="#DejaVuSans-20" transform="translate(304.052734 0)"/>
       <use xlink:href="#DejaVuSans-68" transform="translate(335.839844 0)"/>
       <use xlink:href="#DejaVuSans-61" transform="translate(399.21875 0)"/>
       <use xlink:href="#DejaVuSans-6c" transform="translate(460.498047 0)"/>
       <use xlink:href="#DejaVuSans-66" transform="translate(488.28125 0)"/>
      </g>
     </g>
    </g>
    <g id="xtick_6">
     <g id="line2d_6">
      <g>
       <use xlink:href="#m3fadbbab65" x="318.703927" y="304.917495" style="stroke: #000000; stroke-width: 0.8"/>
      </g>
     </g>
     <g id="text_6">
      <!-- gr sin2 half n3 / sin pi -->
      <g transform="translate(260.816344 413.463128) rotate(-65) scale(0.1 -0.1)">
       <use xlink:href="#DejaVuSans-67"/>
       <use xlink:href="#DejaVuSans-72" transform="translate(63.476562 0)"/>
       <use xlink:href="#DejaVuSans-20" transform="translate(104.589844 0)"/>
       <use xlink:href="#DejaVuSans-73" transform="translate(136.376953 0)"/>
       <use xlink:href="#DejaVuSans-69" transform="translate(188.476562 0)"/>
       <use xlink:href="#DejaVuSans-6e" transform="translate(216.259766 0)"/>
       <use xlink:href="#DejaVuSans-32" transform="translate(279.638672 0)"/>
       <use xlink:href="#DejaVuSans-20" transform="translate(343.261719 0)"/>
       <use xlink:href="#DejaVuSans-68" transform="translate(375.048828 0)"/>
       <use xlink:href="#DejaVuSans-61" transform="translate(438.427734 0)"/>
       <use xlink:href="#DejaVuSans-6c" transform="translate(499.707031 0)"/>
       <use xlink:href="#DejaVuSans-66" transform="translate(527.490234 0)"/>
       <use xlink:href="#DejaVuSans-20" transform="translate(562.695312 0)"/>
       <use xlink:href="#DejaVuSans-6e" transform="translate(594.482422 0)"/>
       <use xlink:href="#DejaVuSans-33" transform="translate(657.861328 0)"/>
       <use xlink:href="#DejaVuSans-20" transform="translate(721.484375 0)"/>
       <use xlink:href="#DejaVuSans-2f" transform="translate(753.271484 0)"/>
       <use xlink:href="#DejaVuSans-20" transform="translate(786.962891 0)"/>
       <use xlink:href="#DejaVuSans-73" transform="translate(818.75 0)"/>
       <use xlink:href="#DejaVuSans-69" transform="translate(870.849609 0)"/>
       <use xlink:href="#DejaVuSans-6e" transform="translate(898.632812 0)"/>
       <use xlink:href="#DejaVuSans-20" transform="translate(962.011719 0)"/>
       <use xlink:href="#DejaVuSans-70" transform="translate(993.798828 0)"/>
       <use xlink:href="#DejaVuSans-69" transform="translate(1057.275391 0)"/>
      </g>
      <!-- x -->
      <g transform="translate(314.317718 325.225343) rotate(-65) scale(0.1 -0.1)">
       <use xlink:href="#DejaVuSans-78"/>
      </g>
     </g>
    </g>
    <g id="xtick_7">
     <g id="line2d_7">
      <g>
       <use xlink:href="#m3fadbbab65" x="359.56086" y="304.917495" style="stroke: #000000; stroke-width: 0.8"/>
      </g>
     </g>
     <g id="text_7">
      <!-- gr sin2 half n3 / call x -->
      <g transform="translate(301.821193 413.145921) rotate(-65) scale(0.1 -0.1)">
       <use xlink:href="#DejaVuSans-67"/>
       <use xlink:href="#DejaVuSans-72" transform="translate(63.476562 0)"/>
       <use xlink:href="#DejaVuSans-20" transform="translate(104.589844 0)"/>
       <use xlink:href="#DejaVuSans-73" transform="translate(136.376953 0)"/>
       <use xlink:href="#DejaVuSans-69" transform="translate(188.476562 0)"/>
       <use xlink:href="#DejaVuSans-6e" transform="translate(216.259766 0)"/>
       <use xlink:href="#DejaVuSans-32" transform="translate(279.638672 0)"/>
       <use xlink:href="#DejaVuSans-20" transform="translate(343.261719 0)"/>
       <use xlink:href="#DejaVuSans-68" transform="translate(375.048828 0)"/>
       <use xlink:href="#DejaVuSans-61" transform="translate(438.427734 0)"/>
       <use xlink:href="#DejaVuSans-6c" transform="translate(499.707031 0)"/>
       <use xlink:href="#DejaVuSans-66" transform="translate(527.490234 0)"/>
       <use xlink:href="#DejaVuSans-20" transform="translate(562.695312 0)"/>
       <use xlink:href="#DejaVuSans-6e" transform="translate(594.482422 0)"/>
       <use xlink:href="#DejaVuSans-33" transform="translate(657.861328 0)"/>
       <use xlink:href="#DejaVuSans-20" transform="translate(721.484375 0)"/>
       <use xlink:href="#DejaVuSans-2f" transform="translate(753.271484 0)"/>
       <use xlink:href="#DejaVuSans-20" transform="translate(786.962891 0)"/>
       <use xlink:href="#DejaVuSans-63" transform="translate(818.75 0)"/>
       <use xlink:href="#DejaVuSans-61" transform="translate(873.730469 0)"/>
       <use xlink:href="#DejaVuSans-6c" transform="translate(935.009766 0)"/>
       <use xlink:href="#DejaVuSans-6c" transform="translate(962.792969 0)"/>
       <use xlink:href="#DejaVuSans-20" transform="translate(990.576172 0)"/>
       <use xlink:href="#DejaVuSans-78" transform="translate(1022.363281 0)"/>
      </g>
      <!-- minus half -->
      <g transform="translate(335.553938 367.302098) rotate(-65) scale(0.1 -0.1)">
       <use xlink:href="#DejaVuSans-6d"/>
       <use xlink:href="#DejaVuSans-69" transform="translate(97.412109 0)"/>
       <use xlink:href="#DejaVuSans-6e" transform="translate(125.195312 0)"/>
       <use xlink:href="#DejaVuSans-75" transform="translate(188.574219 0)"/>
       <use xlink:href="#DejaVuSans-73" transform="translate(251.953125 0)"/>
       <use xlink:href="#DejaVuSans-20" transform="translate(304.052734 0)"/>
       <use xlink:href="#DejaVuSans-68" transform="translate(335.839844 0)"/>
       <use xlink:href="#DejaVuSans-61" transform="translate(399.21875 0)"/>
       <use xlink:href="#DejaVuSans-6c" transform="translate(460.498047 0)"/>
       <use xlink:href="#DejaVuSans-66" transform="translate(488.28125 0)"/>
      </g>
     </g>
    </g>
    <g id="xtick_8">
     <g id="line2d_8">
      <g>
       <use xlink:href="#m3fadbbab65" x="400.417793" y="304.917495" style="stroke: #000000; stroke-width: 0.8"/>
      </g>
     </g>
     <g id="text_8">
      <!-- gr affine n4 / call x -->
      <g transform="translate(348.676004 400.283431) rotate(-65) scale(0.1 -0.1)">
       <use xlink:href="#DejaVuSans-67"/>
       <use xlink:href="#DejaVuSans-72" transform="translate(63.476562 0)"/>
       <use xlink:href="#DejaVuSans-20" transform="translate(104.589844 0)"/>
       <use xlink:href="#DejaVuSans-61" transform="translate(136.376953 0)"/>
       <use xlink:href="#DejaVuSans-66" transform="translate(197.65625 0)"/>
       <use xlink:href="#DejaVuSans-66" transform="translate(232.861328 0)"/>
       <use xlink:href="#DejaVuSans-69" transform="translate(268.066406 0)"/>
       <use xlink:href="#DejaVuSans-6e" transform="translate(295.849609 0)"/>
       <use xlink:href="#DejaVuSans-65" transform="translate(359.228516 0)"/>
       <use xlink:href="#DejaVuSans-20" transform="translate(420.751953 0)"/>
       <use xlink:href="#DejaVuSans-6e" transform="translate(452.539062 0)"/>
       <use xlink:href="#DejaVuSans-34" transform="translate(515.917969 0)"/>
       <use xlink:href="#DejaVuSans-20" transform="translate(579.541016 0)"/>
       <use xlink:href="#DejaVuSans-2f" transform="translate(611.328125 0)"/>
       <use xlink:href="#DejaVuSans-20" transform="translate(645.019531 0)"/>
       <use xlink:href="#DejaVuSans-63" transform="translate(676.806641 0)"/>
       <use xlink:href="#DejaVuSans-61" transform="translate(731.787109 0)"/>
       <use xlink:href="#DejaVuSans-6c" transform="translate(793.066406 0)"/>
       <use xlink:href="#DejaVuSans-6c" transform="translate(820.849609 0)"/>
       <use xlink:href="#DejaVuSans-20" transform="translate(848.632812 0)"/>
       <use xlink:href="#DejaVuSans-78" transform="translate(880.419922 0)"/>
      </g>
      <!-- minus half -->
      <g transform="translate(376.410871 367.302098) rotate(-65) scale(0.1 -0.1)">
       <use xlink:href="#DejaVuSans-6d"/>
       <use xlink:href="#DejaVuSans-69" transform="translate(97.412109 0)"/>
       <use xlink:href="#DejaVuSans-6e" transform="translate(125.195312 0)"/>
       <use xlink:href="#DejaVuSans-75" transform="translate(188.574219 0)"/>
       <use xlink:href="#DejaVuSans-73" transform="translate(251.953125 0)"/>
       <use xlink:href="#DejaVuSans-20" transform="translate(304.052734 0)"/>
       <use xlink:href="#DejaVuSans-68" transform="translate(335.839844 0)"/>
       <use xlink:href="#DejaVuSans-61" transform="translate(399.21875 0)"/>
       <use xlink:href="#DejaVuSans-6c" transform="translate(460.498047 0)"/>
       <use xlink:href="#DejaVuSans-66" transform="translate(488.28125 0)"/>
      </g>
     </g>
    </g>
    <g id="xtick_9">
     <g id="line2d_9">
      <g>
       <use xlink:href="#m3fadbbab65" x="441.274726" y="304.917495" style="stroke: #000000; stroke-width: 0.8"/>
      </g>
     </g>
     <g id="text_9">
      <!-- gr beta bump n4 / mean x -->
      <g transform="translate(383.942373 434.036315) rotate(-65) scale(0.1 -0.1)">
       <use xlink:href="#DejaVuSans-67"/>
       <use xlink:href="#DejaVuSans-72" transform="translate(63.476562 0)"/>
       <use xlink:href="#DejaVuSans-20" transform="translate(104.589844 0)"/>
       <use xlink:href="#DejaVuSans-62" transform="translate(136.376953 0)"/>
       <use xlink:href="#DejaVuSans-65" transform="translate(199.853516 0)"/>
       <use xlink:href="#DejaVuSans-74" transform="translate(261.376953 0)"/>
       <use xlink:href="#DejaVuSans-61" transform="translate(300.585938 0)"/>
       <use xlink:href="#DejaVuSans-20" transform="translate(361.865234 0)"/>
       <use xlink:href="#DejaVuSans-62" transform="translate(393.652344 0)"/>
       <use xlink:href="#DejaVuSans-75" transform="translate(457.128906 0)"/>
       <use xlink:href="#DejaVuSans-6d" transform="translate(520.507812 0)"/>
       <use xlink:href="#DejaVuSans-70" transform="translate(617.919922 0)"/>
       <use xlink:href="#DejaVuSans-20" transform="translate(681.396484 0)"/>
       <use xlink:href="#DejaVuSans-6e" transform="translate(713.183594 0)"/>
       <use xlink:href="#DejaVuSans-34" transform="translate(776.5625 0)"/>
       <use xlink:href="#DejaVuSans-20" transform="translate(840.185547 0)"/>
       <use xlink:href="#DejaVuSans-2f" transform="translate(871.972656 0)"/>
       <use xlink:href="#DejaVuSans-20" transform="translate(905.664062 0)"/>
       <use xlink:href="#DejaVuSans-6d" transform="translate(937.451172 0)"/>
       <use xlink:href="#DejaVuSans-65" transform="translate(1034.863281 0)"/>
       <use xlink:href="#DejaVuSans-61" transform="translate(1096.386719 0)"/>
       <use xlink:href="#DejaVuSans-6e" transform="translate(1157.666016 0)"/>
       <use xlink:href="#DejaVuSans-20" transform="translate(1221.044922 0)"/>
       <use xlink:href="#DejaVuSans-78" transform="translate(1252.832031 0)"/>
      </g>
     </g>
    </g>
    <g id="xtick_10">
     <g id="line2d_10">
      <g>
       <use xlink:href="#m3fadbbab65" x="482.131659" y="304.917495" style="stroke: #000000; stroke-width: 0.8"/>
      </g>
     </g>
     <g id="text_10">
      <!-- gr sin2 n3 / upper half -->
      <g transform="translate(433.264878 415.881837) rotate(-65) scale(0.1 -0.1)">
       <use xlink:href="#DejaVuSans-67"/>
       <use xlink:href="#DejaVuSans-72" transform="translate(63.476562 0)"/>
       <use xlink:href="#DejaVuSans-20" transform="translate(104.589844 0)"/>
       <use xlink:href="#DejaVuSans-73" transform="translate(136.376953 0)"/>
       <use xlink:href="#DejaVuSans-69" transform="translate(188.476562 0)"/>
       <use xlink:href="#DejaVuSans-6e" transform="translate(216.259766 0)"/>
       <use xlink:href="#DejaVuSans-32" transform="translate(279.638672 0)"/>
       <use xlink:href="#DejaVuSans-20" transform="translate(343.261719 0)"/>
       <use xlink:href="#DejaVuSans-6e" transform="translate(375.048828 0)"/>
       <use xlink:href="#DejaVuSans-33" transform="translate(438.427734 0)"/>
       <use xlink:href="#DejaVuSans-20" transform="translate(502.050781 0)"/>
       <use xlink:href="#DejaVuSans-2f" transform="translate(533.837891 0)"/>
       <use xlink:href="#DejaVuSans-20" transform="translate(567.529297 0)"/>
       <use xlink:href="#DejaVuSans-75" transform="translate(599.316406 0)"/>
       <use xlink:href="#DejaVuSans-70" transform="translate(662.695312 0)"/>
       <use xlink:href="#DejaVuSans-70" transform="translate(726.171875 0)"/>
       <use xlink:href="#DejaVuSans-65" transform="translate(789.648438 0)"/>
       <use xlink:href="#DejaVuSans-72" transform="translate(851.171875 0)"/>
       <use xlink:href="#DejaVuSans-20" transform="translate(892.285156 0)"/>
       <use xlink:href="#DejaVuSans-68" transform="translate(924.072266 0)"/>
       <use xlink:href="#DejaVuSans-61" transform="translate(987.451172 0)"/>
       <use xlink:href="#DejaVuSans-6c" transform="translate(1048.730469 0)"/>
       <use xlink:href="#DejaVuSans-66" transform="translate(1076.513672 0)"/>
      </g>
     </g>
    </g>
    <g id="xtick_11">
     <g id="line2d_11">
      <g>
       <use xlink:href="#m3fadbbab65" x="522.988591" y="304.917495" style="stroke: #000000; stroke-width: 0.8"/>
      </g>
     </g>
     <g id="text_11">
      <!-- gr beta bump n4 / second -->
      <g transform="translate(456.264325 432.413458) rotate(-65) scale(0.1 -0.1)">
       <use xlink:href="#DejaVuSans-67"/>
       <use xlink:href="#DejaVuSans-72" transform="translate(63.476562 0)"/>
       <use xlink:href="#DejaVuSans-20" transform="translate(104.589844 0)"/>
       <use xlink:href="#DejaVuSans-62" transform="translate(136.376953 0)"/>
       <use xlink:href="#DejaVuSans-65" transform="translate(199.853516 0)"/>
       <use xlink:href="#DejaVuSans-74" transform="translate(261.376953 0)"/>
       <use xlink:href="#DejaVuSans-61" transform="translate(300.585938 0)"/>
       <use xlink:href="#DejaVuSans-20" transform="translate(361.865234 0)"/>
       <use xlink:href="#DejaVuSans-62" transform="translate(393.652344 0)"/>
       <use xlink:href="#DejaVuSans-75" transform="translate(457.128906 0)"/>
       <use xlink:href="#DejaVuSans-6d" transform="translate(520.507812 0)"/>
       <use xlink:href="#DejaVuSans-70" transform="translate(617.919922 0)"/>
       <use xlink:href="#DejaVuSans-20" transform="translate(681.396484 0)"/>
       <use xlink:href="#DejaVuSans-6e" transform="translate(713.183594 0)"/>
       <use xlink:href="#DejaVuSans-34" transform="translate(776.5625 0)"/>
       <use xlink:href="#DejaVuSans-20" transform="translate(840.185547 0)"/>
       <use xlink:href="#DejaVuSans-2f" transform="translate(871.972656 0)"/>
       <use xlink:href="#DejaVuSans-20" transform="translate(905.664062 0)"/>
       <use xlink:href="#DejaVuSans-73" transform="translate(937.451172 0)"/>
       <use xlink:href="#DejaVuSans-65" transform="translate(989.550781 0)"/>
       <use xlink:href="#DejaVuSans-63" transform="translate(1051.074219 0)"/>
       <use xlink:href="#DejaVuSans-6f" transform="translate(1106.054688 0)"/>
       <use xlink:href="#DejaVuSans-6e" transform="translate(1167.236328 0)"/>
       <use xlink:href="#DejaVuSans-64" transform="translate(1230.615234 0)"/>
      </g>
      <!-- moment x2 -->
      <g transform="translate(496.815751 371.946925) rotate(-65) scale(0.1 -0.1)">
       <use xlink:href="#DejaVuSans-6d"/>
       <use xlink:href="#DejaVuSans-6f" transform="translate(97.412109 0)"/>
       <use xlink:href="#DejaVuSans-6d" transform="translate(158.59375 0)"/>
       <use xlink:href="#DejaVuSans-65" transform="translate(256.005859 0)"/>
       <use xlink:href="#DejaVuSans-6e" transform="translate(317.529297 0)"/>
       <use xlink:href="#DejaVuSans-74" transform="translate(380.908203 0)"/>
       <use xlink:href="#DejaVuSans-20" transform="translate(420.117188 0)"/>
       <use xlink:href="#DejaVuSans-78" transform="translate(451.904297 0)"/>
       <use xlink:href="#DejaVuSans-32" transform="translate(511.083984 0)"/>
      </g>
     </g>
    </g>
    <g id="xtick_12">
     <g id="line2d_12">
      <g>
       <use xlink:href="#m3fadbbab65" x="563.845524" y="304.917495" style="stroke: #000000; stroke-width: 0.8"/>
      </g>
     </g>
     <g id="text_12">
      <!-- gr sin2 half n3 / mean x -->
      <g transform="translate(511.531103 423.275326) rotate(-65) scale(0.1 -0.1)">
       <use xlink:href="#DejaVuSans-67"/>
       <use xlink:href="#DejaVuSans-72" transform="translate(63.476562 0)"/>
       <use xlink:href="#DejaVuSans-20" transform="translate(104.589844 0)"/>
       <use xlink:href="#DejaVuSans-73" transform="translate(136.376953 0)"/>
       <use xlink:href="#DejaVuSans-69" transform="translate(188.476562 0)"/>
       <use xlink:href="#DejaVuSans-6e" transform="translate(216.259766 0)"/>
       <use xlink:href="#DejaVuSans-32" transform="translate(279.638672 0)"/>
       <use xlink:href="#DejaVuSans-20" transform="translate(343.261719 0)"/>
       <use xlink:href="#DejaVuSans-68" transform="translate(375.048828 0)"/>
       <use xlink:href="#DejaVuSans-61" transform="translate(438.427734 0)"/>
       <use xlink:href="#DejaVuSans-6c" transform="translate(499.707031 0)"/>
       <use xlink:href="#DejaVuSans-66" transform="translate(527.490234 0)"/>
       <use xlink:href="#DejaVuSans-20" transform="translate(562.695312 0)"/>
       <use xlink:href="#DejaVuSans-6e" transform="translate(594.482422 0)"/>
       <use xlink:href="#DejaVuSans-33" transform="translate(657.861328 0)"/>
       <use xlink:href="#DejaVuSans-20" transform="translate(721.484375 0)"/>
       <use xlink:href="#DejaVuSans-2f" transform="translate(753.271484 0)"/>
       <use xlink:href="#DejaVuSans-20" transform="translate(786.962891 0)"/>
       <use xlink:href="#DejaVuSans-6d" transform="translate(818.75 0)"/>
       <use xlink:href="#DejaVuSans-65" transform="translate(916.162109 0)"/>
       <use xlink:href="#DejaVuSans-61" transform="translate(977.685547 0)"/>
       <use xlink:href="#DejaVuSans-6e" transform="translate(1038.964844 0)"/>
       <use xlink:href="#DejaVuSans-20" transform="translate(1102.34375 0)"/>
       <use xlink:href="#DejaVuSans-78" transform="translate(1134.130859 0)"/>
      </g>
     </g>
    </g>
    <g id="xtick_13">
     <g id="line2d_13">
      <g>
       <use xlink:href="#m3fadbbab65" x="604.702457" y="304.917495" style="stroke: #000000; stroke-width: 0.8"/>
      </g>
     </g>
     <g id="text_13">
      <!-- gr beta bump n4 / sin pi -->
      <g transform="translate(541.796943 424.224117) rotate(-65) scale(0.1 -0.1)">
       <use xlink:href="#DejaVuSans-67"/>
       <use xlink:href="#DejaVuSans-72" transform="translate(63.476562 0)"/>
       <use xlink:href="#DejaVuSans-20" transform="translate(104.589844 0)"/>
       <use xlink:href="#DejaVuSans-62" transform="translate(136.376953 0)"/>
       <use xlink:href="#DejaVuSans-65" transform="translate(199.853516 0)"/>
       <use xlink:href="#DejaVuSans-74" transform="translate(261.376953 0)"/>
       <use xlink:href="#DejaVuSans-61" transform="translate(300.585938 0)"/>
       <use xlink:href="#DejaVuSans-20" transform="translate(361.865234 0)"/>
       <use xlink:href="#DejaVuSans-62" transform="translate(393.652344 0)"/>
       <use xlink:href="#DejaVuSans-75" transform="translate(457.128906 0)"/>
       <use xlink:href="#DejaVuSans-6d" transform="translate(520.507812 0)"/>
       <use xlink:href="#DejaVuSans-70" transform="translate(617.919922 0)"/>
       <use xlink:href="#DejaVuSans-20" transform="translate(681.396484 0)"/>
       <use xlink:href="#DejaVuSans-6e" transform="translate(713.183594 0)"/>
       <use xlink:href="#DejaVuSans-34" transform="translate(776.5625 0)"/>
       <use xlink:href="#DejaVuSans-20" transform="translate(840.185547 0)"/>
       <use xlink:href="#DejaVuSans-2f" transform="translate(871.972656 0)"/>
       <use xlink:href="#DejaVuSans-20" transform="translate(905.664062 0)"/>
       <use xlink:href="#DejaVuSans-73" transform="translate(937.451172 0)"/>
       <use xlink:href="#DejaVuSans-69" transform="translate(989.550781 0)"/>
       <use xlink:href="#DejaVuSans-6e" transform="translate(1017.333984 0)"/>
       <use xlink:href="#DejaVuSans-20" transform="translate(1080.712891 0)"/>
       <use xlink:href="#DejaVuSans-70" transform="translate(1112.5 0)"/>
       <use xlink:href="#DejaVuSans-69" transform="translate(1175.976562 0)"/>
      </g>
      <!-- x -->
      <g transform="translate(600.316249 325.225343) rotate(-65) scale(0.1 -0.1)">
       <use xlink:href="#DejaVuSans-78"/>
      </g>
     </g>
    </g>
    <g id="xtick_14">
     <g id="line2d_14">
      <g>
       <use xlink:href="#m3fadbbab65" x="645.55939" y="304.917495" style="stroke: #000000; stroke-width: 0.8"/>
      </g>
     </g>
     <g id="text_14">
      <!-- gr affine n4 / mean x -->
      <g transform="translate(599.242847 410.412836) rotate(-65) scale(0.1 -0.1)">
       <use xlink:href="#DejaVuSans-67"/>
       <use xlink:href="#DejaVuSans-72" transform="translate(63.476562 0)"/>
       <use xlink:href="#DejaVuSans-20" transform="translate(104.589844 0)"/>
       <use xlink:href="#DejaVuSans-61" transform="translate(136.376953 0)"/>
       <use xlink:href="#DejaVuSans-66" transform="translate(197.65625 0)"/>
       <use xlink:href="#DejaVuSans-66" transform="translate(232.861328 0)"/>
       <use xlink:href="#DejaVuSans-69" transform="translate(268.066406 0)"/>
       <use xlink:href="#DejaVuSans-6e" transform="translate(295.849609 0)"/>
       <use xlink:href="#DejaVuSans-65" transform="translate(359.228516 0)"/>
       <use xlink:href="#DejaVuSans-20" transform="translate(420.751953 0)"/>
       <use xlink:href="#DejaVuSans-6e" transform="translate(452.539062 0)"/>
       <use xlink:href="#DejaVuSans-34" transform="translate(515.917969 0)"/>
       <use xlink:href="#DejaVuSans-20" transform="translate(579.541016 0)"/>
       <use xlink:href="#DejaVuSans-2f" transform="translate(611.328125 0)"/>
       <use xlink:href="#DejaVuSans-20" transform="translate(645.019531 0)"/>
       <use xlink:href="#DejaVuSans-6d" transform="translate(676.806641 0)"/>
       <use xlink:href="#DejaVuSans-65" transform="translate(774.21875 0)"/>
       <use xlink:href="#DejaVuSans-61" transform="translate(835.742188 0)"/>
       <use xlink:href="#DejaVuSans-6e" transform="translate(897.021484 0)"/>
       <use xlink:href="#DejaVuSans-20" transform="translate(960.400391 0)"/>
       <use xlink:href="#DejaVuSans-78" transform="translate(992.1875 0)"/>
      </g>
     </g>
    </g>
    <g id="xtick_15">
     <g id="line2d_15">
      <g>
       <use xlink:href="#m3fadbbab65" x="686.416323" y="304.917495" style="stroke: #000000; stroke-width: 0.8"/>
      </g>
     </g>
     <g id="text_15">
      <!-- gr sin2 half n3 / second -->
      <g transform="translate(624.709988 421.652469) rotate(-65) scale(0.1 -0.1)">
       <use xlink:href="#DejaVuSans-67"/>
       <use xlink:href="#DejaVuSans-72" transform="translate(63.476562 0)"/>
       <use xlink:href="#DejaVuSans-20" transform="translate(104.589844 0)"/>
       <use xlink:href="#DejaVuSans-73" transform="translate(136.376953 0)"/>
       <use xlink:href="#DejaVuSans-69" transform="translate(188.476562 0)"/>
       <use xlink:href="#DejaVuSans-6e" transform="translate(216.259766 0)"/>
       <use xlink:href="#DejaVuSans-32" transform="translate(279.638672 0)"/>
       <use xlink:href="#DejaVuSans-20" transform="translate(343.261719 0)"/>
       <use xlink:href="#DejaVuSans-68" transform="translate(375.048828 0)"/>
       <use xlink:href="#DejaVuSans-61" transform="translate(438.427734 0)"/>
       <use xlink:href="#DejaVuSans-6c" transform="translate(499.707031 0)"/>
       <use xlink:href="#DejaVuSans-66" transform="translate(527.490234 0)"/>
       <use xlink:href="#DejaVuSans-20" transform="translate(562.695312 0)"/>
       <use xlink:href="#DejaVuSans-6e" transform="translate(594.482422 0)"/>
       <use xlink:href="#DejaVuSans-33" transform="translate(657.861328 0)"/>
       <use xlink:href="#DejaVuSans-20" transform="translate(721.484375 0)"/>
       <use xlink:href="#DejaVuSans-2f" transform="translate(753.271484 0)"/>
       <use xlink:href="#DejaVuSans-20" transform="translate(786.962891 0)"/>
       <use xlink:href="#DejaVuSans-73" transform="translate(818.75 0)"/>
       <use xlink:href="#DejaVuSans-65" transform="translate(870.849609 0)"/>
       <use xlink:href="#DejaVuSans-63" transform="translate(932.373047 0)"/>
       <use xlink:href="#DejaVuSans-6f" transform="translate(987.353516 0)"/>
       <use xlink:href="#DejaVuSans-6e" transform="translate(1048.535156 0)"/>
       <use xlink:href="#DejaVuSans-64" transform="translate(1111.914062 0)"/>
      </g>
      <!-- moment x2 -->
      <g transform="translate(660.243483 371.946925) rotate(-65) scale(0.1 -0.1)">
       <use xlink:href="#DejaVuSans-6d"/>
       <use xlink:href="#DejaVuSans-6f" transform="translate(97.412109 0)"/>
       <use xlink:href="#DejaVuSans-6d" transform="translate(158.59375 0)"/>
       <use xlink:href="#DejaVuSans-65" transform="translate(256.005859 0)"/>
       <use xlink:href="#DejaVuSans-6e" transform="translate(317.529297 0)"/>
       <use xlink:href="#DejaVuSans-74" transform="translate(380.908203 0)"/>
       <use xlink:href="#DejaVuSans-20" transform="translate(420.117188 0)"/>
       <use xlink:href="#DejaVuSans-78" transform="translate(451.904297 0)"/>
       <use xlink:href="#DejaVuSans-32" transform="translate(511.083984 0)"/>
      </g>
     </g>
    </g>
    <g id="xtick_16">
     <g id="line2d_16">
      <g>
       <use xlink:href="#m3fadbbab65" x="727.273256" y="304.917495" style="stroke: #000000; stroke-width: 0.8"/>
      </g>
     </g>
     <g id="text_16">
      <!-- gr affine n4 / second -->
      <g transform="translate(671.564799 408.789979) rotate(-65) scale(0.1 -0.1)">
       <use xlink:href="#DejaVuSans-67"/>
       <use xlink:href="#DejaVuSans-72" transform="translate(63.476562 0)"/>
       <use xlink:href="#DejaVuSans-20" transform="translate(104.589844 0)"/>
       <use xlink:href="#DejaVuSans-61" transform="translate(136.376953 0)"/>
       <use xlink:href="#DejaVuSans-66" transform="translate(197.65625 0)"/>
       <use xlink:href="#DejaVuSans-66" transform="translate(232.861328 0)"/>
       <use xlink:href="#DejaVuSans-69" transform="translate(268.066406 0)"/>
       <use xlink:href="#DejaVuSans-6e" transform="translate(295.849609 0)"/>
       <use xlink:href="#DejaVuSans-65" transform="translate(359.228516 0)"/>
       <use xlink:href="#DejaVuSans-20" transform="translate(420.751953 0)"/>
       <use xlink:href="#DejaVuSans-6e" transform="translate(452.539062 0)"/>
       <use xlink:href="#DejaVuSans-34" transform="translate(515.917969 0)"/>
       <use xlink:href="#DejaVuSans-20" transform="translate(579.541016 0)"/>
       <use xlink:href="#DejaVuSans-2f" transform="translate(611.328125 0)"/>
       <use xlink:href="#DejaVuSans-20" transform="translate(645.019531 0)"/>
       <use xlink:href="#DejaVuSans-73" transform="translate(676.806641 0)"/>
       <use xlink:href="#DejaVuSans-65" transform="translate(728.90625 0)"/>
       <use xlink:href="#DejaVuSans-63" transform="translate(790.429688 0)"/>
       <use xlink:href="#DejaVuSans-6f" transform="translate(845.410156 0)"/>
       <use xlink:href="#DejaVuSans-6e" transform="translate(906.591797 0)"/>
       <use xlink:href="#DejaVuSans-64" transform="translate(969.970703 0)"/>
      </g>
      <!-- moment x2 -->
      <g transform="translate(701.100416 371.946925) rotate(-65) scale(0.1 -0.1)">
       <use xlink:href="#DejaVuSans-6d"/>
       <use xlink:href="#DejaVuSans-6f" transform="translate(97.412109 0)"/>
       <use xlink:href="#DejaVuSans-6d" transform="translate(158.59375 0)"/>
       <use xlink:href="#DejaVuSans-65" transform="translate(256.005859 0)"/>
       <use xlink:href="#DejaVuSans-6e" transform="translate(317.529297 0)"/>
       <use xlink:href="#DejaVuSans-74" transform="translate(380.908203 0)"/>
       <use xlink:href="#DejaVuSans-20" transform="translate(420.117188 0)"/>
       <use xlink:href="#DejaVuSans-78" transform="translate(451.904297 0)"/>
       <use xlink:href="#DejaVuSans-32" transform="translate(511.083984 0)"/>
      </g>
     </g>
    </g>
    <g id="xtick_17">
     <g id="line2d_17">
      <g>
       <use xlink:href="#m3fadbbab65" x="768.130189" y="304.917495" style="stroke: #000000; stroke-width: 0.8"/>
      </g>
     </g>
     <g id="text_17">
      <!-- gr affine n4 / upper -->
      <g transform="translate(715.112621 403.019347) rotate(-65) scale(0.1 -0.1)">
       <use xlink:href="#DejaVuSans-67"/>
       <use xlink:href="#DejaVuSans-72" transform="translate(63.476562 0)"/>
       <use xlink:href="#DejaVuSans-20" transform="translate(104.589844 0)"/>
       <use xlink:href="#DejaVuSans-61" transform="translate(136.376953 0)"/>
       <use xlink:href="#DejaVuSans-66" transform="translate(197.65625 0)"/>
       <use xlink:href="#DejaVuSans-66" transform="translate(232.861328 0)"/>
       <use xlink:href="#DejaVuSans-69" transform="translate(268.066406 0)"/>
       <use xlink:href="#DejaVuSans-6e" transform="translate(295.849609 0)"/>
       <use xlink:href="#DejaVuSans-65" transform="translate(359.228516 0)"/>
       <use xlink:href="#DejaVuSans-20" transform="translate(420.751953 0)"/>
       <use xlink:href="#DejaVuSans-6e" transform="translate(452.539062 0)"/>
       <use xlink:href="#DejaVuSans-34" transform="translate(515.917969 0)"/>
       <use xlink:href="#DejaVuSans-20" transform="translate(579.541016 0)"/>
       <use xlink:href="#DejaVuSans-2f" transform="translate(611.328125 0)"/>
       <use xlink:href="#DejaVuSans-20" transform="translate(645.019531 0)"/>
       <use xlink:href="#DejaVuSans-75" transform="translate(676.806641 0)"/>
       <use xlink:href="#DejaVuSans-70" transform="translate(740.185547 0)"/>
       <use xlink:href="#DejaVuSans-70" transform="translate(803.662109 0)"/>
       <use xlink:href="#DejaVuSans-65" transform="translate(867.138672 0)"/>
       <use xlink:href="#DejaVuSans-72" transform="translate(928.662109 0)"/>
      </g>
      <!-- half -->
      <g transform="translate(758.315317 336.86715) rotate(-65) scale(0.1 -0.1)">
       <use xlink:href="#DejaVuSans-68"/>
       <use xlink:href="#DejaVuSans-61" transform="translate(63.378906 0)"/>
       <use xlink:href="#DejaVuSans-6c" transform="translate(124.658203 0)"/>
       <use xlink:href="#DejaVuSans-66" transform="translate(152.441406 0)"/>
      </g>
     </g>
    </g>
    <g id="xtick_18">
     <g id="line2d_18">
      <g>
       <use xlink:href="#m3fadbbab65" x="808.987122" y="304.917495" style="stroke: #000000; stroke-width: 0.8"/>
      </g>
     </g>
     <g id="text_18">
      <!-- gr beta bump n4 / upper -->
      <g transform="translate(744.953745 426.642826) rotate(-65) scale(0.1 -0.1)">
       <use xlink:href="#DejaVuSans-67"/>
       <use xlink:href="#DejaVuSans-72" transform="translate(63.476562 0)"/>
       <use xlink:href="#DejaVuSans-20" transform="translate(104.589844 0)"/>
       <use xlink:href="#DejaVuSans-62" transform="translate(136.376953 0)"/>
       <use xlink:href="#DejaVuSans-65" transform="translate(199.853516 0)"/>
       <use xlink:href="#DejaVuSans-74" transform="translate(261.376953 0)"/>
       <use xlink:href="#DejaVuSans-61" transform="translate(300.585938 0)"/>
       <use xlink:href="#DejaVuSans-20" transform="translate(361.865234 0)"/>
       <use xlink:href="#DejaVuSans-62" transform="translate(393.652344 0)"/>
       <use xlink:href="#DejaVuSans-75" transform="translate(457.128906 0)"/>
       <use xlink:href="#DejaVuSans-6d" transform="translate(520.507812 0)"/>
       <use xlink:href="#DejaVuSans-70" transform="translate(617.919922 0)"/>
       <use xlink:href="#DejaVuSans-20" transform="translate(681.396484 0)"/>
       <use xlink:href="#DejaVuSans-6e" transform="translate(713.183594 0)"/>
       <use xlink:href="#DejaVuSans-34" transform="translate(776.5625 0)"/>
       <use xlink:href="#DejaVuSans-20" transform="translate(840.185547 0)"/>
       <use xlink:href="#DejaVuSans-2f" transform="translate(871.972656 0)"/>
       <use xlink:href="#DejaVuSans-20" transform="translate(905.664062 0)"/>
       <use xlink:href="#DejaVuSans-75" transform="translate(937.451172 0)"/>
       <use xlink:href="#DejaVuSans-70" transform="translate(1000.830078 0)"/>
       <use xlink:href="#DejaVuSans-70" transform="translate(1064.306641 0)"/>
       <use xlink:href="#DejaVuSans-65" transform="translate(1127.783203 0)"/>
       <use xlink:href="#DejaVuSans-72" transform="translate(1189.306641 0)"/>
      </g>
      <!-- half -->
      <g transform="translate(799.17225 336.86715) rotate(-65) scale(0.1 -0.1)">
       <use xlink:href="#DejaVuSans-68"/>
       <use xlink:href="#DejaVuSans-61" transform="translate(63.378906 0)"/>
       <use xlink:href="#DejaVuSans-6c" transform="translate(124.658203 0)"/>
       <use xlink:href="#DejaVuSans-66" transform="translate(152.441406 0)"/>
      </g>
     </g>
    </g>
    <g id="xtick_19">
     <g id="line2d_19">
      <g>
       <use xlink:href="#m3fadbbab65" x="849.844055" y="304.917495" style="stroke: #000000; stroke-width: 0.8"/>
      </g>
     </g>
     <g id="text_19">
      <!-- gr sin2 half n3 / upper -->
      <g transform="translate(790.82861 415.881837) rotate(-65) scale(0.1 -0.1)">
       <use xlink:href="#DejaVuSans-67"/>
       <use xlink:href="#DejaVuSans-72" transform="translate(63.476562 0)"/>
       <use xlink:href="#DejaVuSans-20" transform="translate(104.589844 0)"/>
       <use xlink:href="#DejaVuSans-73" transform="translate(136.376953 0)"/>
       <use xlink:href="#DejaVuSans-69" transform="translate(188.476562 0)"/>
       <use xlink:href="#DejaVuSans-6e" transform="translate(216.259766 0)"/>
       <use xlink:href="#DejaVuSans-32" transform="translate(279.638672 0)"/>
       <use xlink:href="#DejaVuSans-20" transform="translate(343.261719 0)"/>
       <use xlink:href="#DejaVuSans-68" transform="translate(375.048828 0)"/>
       <use xlink:href="#DejaVuSans-61" transform="translate(438.427734 0)"/>
       <use xlink:href="#DejaVuSans-6c" transform="translate(499.707031 0)"/>
       <use xlink:href="#DejaVuSans-66" transform="translate(527.490234 0)"/>
       <use xlink:href="#DejaVuSans-20" transform="translate(562.695312 0)"/>
       <use xlink:href="#DejaVuSans-6e" transform="translate(594.482422 0)"/>
       <use xlink:href="#DejaVuSans-33" transform="translate(657.861328 0)"/>
       <use xlink:href="#DejaVuSans-20" transform="translate(721.484375 0)"/>
       <use xlink:href="#DejaVuSans-2f" transform="translate(753.271484 0)"/>
       <use xlink:href="#DejaVuSans-20" transform="translate(786.962891 0)"/>
       <use xlink:href="#DejaVuSans-75" transform="translate(818.75 0)"/>
       <use xlink:href="#DejaVuSans-70" transform="translate(882.128906 0)"/>
       <use xlink:href="#DejaVuSans-70" transform="translate(945.605469 0)"/>
       <use xlink:href="#DejaVuSans-65" transform="translate(1009.082031 0)"/>
       <use xlink:href="#DejaVuSans-72" transform="translate(1070.605469 0)"/>
      </g>
      <!-- half -->
      <g transform="translate(840.029183 336.86715) rotate(-65) scale(0.1 -0.1)">
       <use xlink:href="#DejaVuSans-68"/>
       <use xlink:href="#DejaVuSans-61" transform="translate(63.378906 0)"/>
       <use xlink:href="#DejaVuSans-6c" transform="translate(124.658203 0)"/>
       <use xlink:href="#DejaVuSans-66" transform="translate(152.441406 0)"/>
      </g>
     </g>
    </g>
    <g id="xtick_20">
     <g id="line2d_20">
      <g>
       <use xlink:href="#m3fadbbab65" x="890.700988" y="304.917495" style="stroke: #000000; stroke-width: 0.8"/>
      </g>
     </g>
     <g id="text_20">
      <!-- gr sin2 n3 / sin pi x -->
      <g transform="translate(848.390733 401.821322) rotate(-65) scale(0.1 -0.1)">
       <use xlink:href="#DejaVuSans-67"/>
       <use xlink:href="#DejaVuSans-72" transform="translate(63.476562 0)"/>
       <use xlink:href="#DejaVuSans-20" transform="translate(104.589844 0)"/>
       <use xlink:href="#DejaVuSans-73" transform="translate(136.376953 0)"/>
       <use xlink:href="#DejaVuSans-69" transform="translate(188.476562 0)"/>
       <use xlink:href="#DejaVuSans-6e" transform="translate(216.259766 0)"/>
       <use xlink:href="#DejaVuSans-32" transform="translate(279.638672 0)"/>
       <use xlink:href="#DejaVuSans-20" transform="translate(343.261719 0)"/>
       <use xlink:href="#DejaVuSans-6e" transform="translate(375.048828 0)"/>
       <use xlink:href="#DejaVuSans-33" transform="translate(438.427734 0)"/>
       <use xlink:href="#DejaVuSans-20" transform="translate(502.050781 0)"/>
       <use xlink:href="#DejaVuSans-2f" transform="translate(533.837891 0)"/>
       <use xlink:href="#DejaVuSans-20" transform="translate(567.529297 0)"/>
       <use xlink:href="#DejaVuSans-73" transform="translate(599.316406 0)"/>
       <use xlink:href="#DejaVuSans-69" transform="translate(651.416016 0)"/>
       <use xlink:href="#DejaVuSans-6e" transform="translate(679.199219 0)"/>
       <use xlink:href="#DejaVuSans-20" transform="translate(742.578125 0)"/>
       <use xlink:href="#DejaVuSans-70" transform="translate(774.365234 0)"/>
       <use xlink:href="#DejaVuSans-69" transform="translate(837.841797 0)"/>
       <use xlink:href="#DejaVuSans-20" transform="translate(865.625 0)"/>
       <use xlink:href="#DejaVuSans-78" transform="translate(897.412109 0)"/>
      </g>
     </g>
    </g>
   </g>
   <g id="matplotlib.axis_2">
    <g id="ytick_1">
     <g id="line2d_21">
      <path d="M 57.628125 304.917495 
L 947.492125 304.917495 
" clip-path="url(#p0e15f2b757)" style="fill: none; stroke: #b0b0b0; stroke-opacity: 0.25; stroke-width: 0.8; stroke-linecap: square"/>
     </g>
     <g id="line2d_22">
      <defs>
       <path id="m6186aa8768" d="M 0 0 
L -3.5 0 
" style="stroke: #000000; stroke-width: 0.8"/>
      </defs>
      <g>
       <use xlink:href="#m6186aa8768" x="57.628125" y="304.917495" style="stroke: #000000; stroke-width: 0.8"/>
      </g>
     </g>
     <g id="text_21">
      <!-- 0.000 -->
      <g transform="translate(22 308.716714) scale(0.1 -0.1)">
       <defs>
        <path id="DejaVuSans-30" d="M 2034 4250 
Q 1547 4250 1301 3770 
Q 1056 3291 1056 2328 
Q 1056 1369 1301 889 
Q 1547 409 2034 409 
Q 2525 409 2770 889 
Q 3016 1369 3016 2328 
Q 3016 3291 2770 3770 
Q 2525 4250 2034 4250 
z
M 2034 4750 
Q 2819 4750 3233 4129 
Q 3647 3509 3647 2328 
Q 3647 1150 3233 529 
Q 2819 -91 2034 -91 
Q 1250 -91 836 529 
Q 422 1150 422 2328 
Q 422 3509 836 4129 
Q 1250 4750 2034 4750 
z
" transform="scale(0.015625)"/>
        <path id="DejaVuSans-2e" d="M 684 794 
L 1344 794 
L 1344 0 
L 684 0 
L 684 794 
z
" transform="scale(0.015625)"/>
       </defs>
       <use xlink:href="#DejaVuSans-30"/>
       <use xlink:href="#DejaVuSans-2e" transform="translate(63.623047 0)"/>
       <use xlink:href="#DejaVuSans-30" transform="translate(95.410156 0)"/>
       <use xlink:href="#DejaVuSans-30" transform="translate(159.033203 0)"/>
       <use xlink:href="#DejaVuSans-30" transform="translate(222.65625 0)"/>
      </g>
     </g>
    </g>
    <g id="ytick_2">
     <g id="line2d_23">
      <path d="M 57.628125 255.338658 
L 947.492125 255.338658 
" clip-path="url(#p0e15f2b757)" style="fill: none; stroke: #b0b0b0; stroke-opacity: 0.25; stroke-width: 0.8; stroke-linecap: square"/>
     </g>
     <g id="line2d_24">
      <g>
       <use xlink:href="#m6186aa8768" x="57.628125" y="255.338658" style="stroke: #000000; stroke-width: 0.8"/>
      </g>
     </g>
     <g id="text_22">
      <!-- 0.005 -->
      <g transform="translate(22 259.137877) scale(0.1 -0.1)">
       <defs>
        <path id="DejaVuSans-35" d="M 691 4666 
L 3169 4666 
L 3169 4134 
L 1269 4134 
L 1269 2991 
Q 1406 3038 1543 3061 
Q 1681 3084 1819 3084 
Q 2600 3084 3056 2656 
Q 3513 2228 3513 1497 
Q 3513 744 3044 326 
Q 2575 -91 1722 -91 
Q 1428 -91 1123 -41 
Q 819 9 494 109 
L 494 744 
Q 775 591 1075 516 
Q 1375 441 1709 441 
Q 2250 441 2565 725 
Q 2881 1009 2881 1497 
Q 2881 1984 2565 2268 
Q 2250 2553 1709 2553 
Q 1456 2553 1204 2497 
Q 953 2441 691 2322 
L 691 4666 
z
" transform="scale(0.015625)"/>
       </defs>
       <use xlink:href="#DejaVuSans-30"/>
       <use xlink:href="#DejaVuSans-2e" transform="translate(63.623047 0)"/>
       <use xlink:href="#DejaVuSans-30" transform="translate(95.410156 0)"/>
       <use xlink:href="#DejaVuSans-30" transform="translate(159.033203 0)"/>
       <use xlink:href="#DejaVuSans-35" transform="translate(222.65625 0)"/>
      </g>
     </g>
    </g>
    <g id="ytick_3">
     <g id="line2d_25">
      <path d="M 57.628125 205.759821 
L 947.492125 205.759821 
" clip-path="url(#p0e15f2b757)" style="fill: none; stroke: #b0b0b0; stroke-opacity: 0.25; stroke-width: 0.8; stroke-linecap: square"/>
     </g>
     <g id="line2d_26">
      <g>
       <use xlink:href="#m6186aa8768" x="57.628125" y="205.759821" style="stroke: #000000; stroke-width: 0.8"/>
      </g>
     </g>
     <g id="text_23">
      <!-- 0.010 -->
      <g transform="translate(22 209.55904) scale(0.1 -0.1)">
       <defs>
        <path id="DejaVuSans-31" d="M 794 531 
L 1825 531 
L 1825 4091 
L 703 3866 
L 703 4441 
L 1819 4666 
L 2450 4666 
L 2450 531 
L 3481 531 
L 3481 0 
L 794 0 
L 794 531 
z
" transform="scale(0.015625)"/>
       </defs>
       <use xlink:href="#DejaVuSans-30"/>
       <use xlink:href="#DejaVuSans-2e" transform="translate(63.623047 0)"/>
       <use xlink:href="#DejaVuSans-30" transform="translate(95.410156 0)"/>
       <use xlink:href="#DejaVuSans-31" transform="translate(159.033203 0)"/>
       <use xlink:href="#DejaVuSans-30" transform="translate(222.65625 0)"/>
      </g>
     </g>
    </g>
    <g id="ytick_4">
     <g id="line2d_27">
      <path d="M 57.628125 156.180985 
L 947.492125 156.180985 
" clip-path="url(#p0e15f2b757)" style="fill: none; stroke: #b0b0b0; stroke-opacity: 0.25; stroke-width: 0.8; stroke-linecap: square"/>
     </g>
     <g id="line2d_28">
      <g>
       <use xlink:href="#m6186aa8768" x="57.628125" y="156.180985" style="stroke: #000000; stroke-width: 0.8"/>
      </g>
     </g>
     <g id="text_24">
      <!-- 0.015 -->
      <g transform="translate(22 159.980203) scale(0.1 -0.1)">
       <use xlink:href="#DejaVuSans-30"/>
       <use xlink:href="#DejaVuSans-2e" transform="translate(63.623047 0)"/>
       <use xlink:href="#DejaVuSans-30" transform="translate(95.410156 0)"/>
       <use xlink:href="#DejaVuSans-31" transform="translate(159.033203 0)"/>
       <use xlink:href="#DejaVuSans-35" transform="translate(222.65625 0)"/>
      </g>
     </g>
    </g>
    <g id="ytick_5">
     <g id="line2d_29">
      <path d="M 57.628125 106.602148 
L 947.492125 106.602148 
" clip-path="url(#p0e15f2b757)" style="fill: none; stroke: #b0b0b0; stroke-opacity: 0.25; stroke-width: 0.8; stroke-linecap: square"/>
     </g>
     <g id="line2d_30">
      <g>
       <use xlink:href="#m6186aa8768" x="57.628125" y="106.602148" style="stroke: #000000; stroke-width: 0.8"/>
      </g>
     </g>
     <g id="text_25">
      <!-- 0.020 -->
      <g transform="translate(22 110.401366) scale(0.1 -0.1)">
       <use xlink:href="#DejaVuSans-30"/>
       <use xlink:href="#DejaVuSans-2e" transform="translate(63.623047 0)"/>
       <use xlink:href="#DejaVuSans-30" transform="translate(95.410156 0)"/>
       <use xlink:href="#DejaVuSans-32" transform="translate(159.033203 0)"/>
       <use xlink:href="#DejaVuSans-30" transform="translate(222.65625 0)"/>
      </g>
     </g>
    </g>
    <g id="ytick_6">
     <g id="line2d_31">
      <path d="M 57.628125 57.023311 
L 947.492125 57.023311 
" clip-path="url(#p0e15f2b757)" style="fill: none; stroke: #b0b0b0; stroke-opacity: 0.25; stroke-width: 0.8; stroke-linecap: square"/>
     </g>
     <g id="line2d_32">
      <g>
       <use xlink:href="#m6186aa8768" x="57.628125" y="57.023311" style="stroke: #000000; stroke-width: 0.8"/>
      </g>
     </g>
     <g id="text_26">
      <!-- 0.025 -->
      <g transform="translate(22 60.82253) scale(0.1 -0.1)">
       <use xlink:href="#DejaVuSans-30"/>
       <use xlink:href="#DejaVuSans-2e" transform="translate(63.623047 0)"/>
       <use xlink:href="#DejaVuSans-30" transform="translate(95.410156 0)"/>
       <use xlink:href="#DejaVuSans-32" transform="translate(159.033203 0)"/>
       <use xlink:href="#DejaVuSans-35" transform="translate(222.65625 0)"/>
      </g>
     </g>
    </g>
    <g id="text_27">
     <!-- Absolute error $|I_{\hat p}(f)-I_p(f)|$ -->
     <g transform="translate(14.9 229.46781) rotate(-90) scale(0.1 -0.1)">
      <defs>
       <path id="DejaVuSans-41" d="M 2188 4044 
L 1331 1722 
L 3047 1722 
L 2188 4044 
z
M 1831 4666 
L 2547 4666 
L 4325 0 
L 3669 0 
L 3244 1197 
L 1141 1197 
L 716 0 
L 50 0 
L 1831 4666 
z
" transform="scale(0.015625)"/>
       <path id="DejaVuSans-7c" d="M 1344 4891 
L 1344 -1509 
L 813 -1509 
L 813 4891 
L 1344 4891 
z
" transform="scale(0.015625)"/>
       <path id="DejaVuSans-Oblique-49" d="M 1081 4666 
L 1716 4666 
L 806 0 
L 172 0 
L 1081 4666 
z
" transform="scale(0.015625)"/>
       <path id="DejaVuSans-302" d="M -1831 5119 
L -1369 5119 
L -603 3944 
L -1038 3944 
L -1600 4709 
L -2163 3944 
L -2597 3944 
L -1831 5119 
z
M -1600 3584 
L -1600 3584 
z
" transform="scale(0.015625)"/>
       <path id="DejaVuSans-Oblique-70" d="M 3175 2156 
Q 3175 2616 2975 2859 
Q 2775 3103 2400 3103 
Q 2144 3103 1911 2972 
Q 1678 2841 1497 2591 
Q 1319 2344 1212 1994 
Q 1106 1644 1106 1300 
Q 1106 863 1306 627 
Q 1506 391 1875 391 
Q 2147 391 2380 519 
Q 2613 647 2778 891 
Q 2956 1147 3065 1494 
Q 3175 1841 3175 2156 
z
M 1394 2969 
Q 1625 3272 1939 3428 
Q 2253 3584 2638 3584 
Q 3175 3584 3472 3232 
Q 3769 2881 3769 2247 
Q 3769 1728 3584 1258 
Q 3400 788 3053 416 
Q 2822 169 2531 39 
Q 2241 -91 1919 -91 
Q 1547 -91 1294 64 
Q 1041 219 916 525 
L 556 -1331 
L -19 -1331 
L 922 3500 
L 1497 3500 
L 1394 2969 
z
" transform="scale(0.015625)"/>
       <path id="DejaVuSans-28" d="M 1984 4856 
Q 1566 4138 1362 3434 
Q 1159 2731 1159 2009 
Q 1159 1288 1364 580 
Q 1569 -128 1984 -844 
L 1484 -844 
Q 1016 -109 783 600 
Q 550 1309 550 2009 
Q 550 2706 781 3412 
Q 1013 4119 1484 4856 
L 1984 4856 
z
" transform="scale(0.015625)"/>
       <path id="DejaVuSans-Oblique-66" d="M 3059 4863 
L 2969 4384 
L 2419 4384 
Q 2106 4384 1964 4261 
Q 1822 4138 1753 3809 
L 1691 3500 
L 2638 3500 
L 2553 3053 
L 1606 3053 
L 1013 0 
L 434 0 
L 1031 3053 
L 481 3053 
L 563 3500 
L 1113 3500 
L 1159 3744 
Q 1278 4363 1576 4613 
Q 1875 4863 2516 4863 
L 3059 4863 
z
" transform="scale(0.015625)"/>
       <path id="DejaVuSans-29" d="M 513 4856 
L 1013 4856 
Q 1481 4119 1714 3412 
Q 1947 2706 1947 2009 
Q 1947 1309 1714 600 
Q 1481 -109 1013 -844 
L 513 -844 
Q 928 -128 1133 580 
Q 1338 1288 1338 2009 
Q 1338 2731 1133 3434 
Q 928 4138 513 4856 
z
" transform="scale(0.015625)"/>
       <path id="DejaVuSans-2212" d="M 678 2272 
L 4684 2272 
L 4684 1741 
L 678 1741 
L 678 2272 
z
" transform="scale(0.015625)"/>
      </defs>
      <use xlink:href="#DejaVuSans-41" transform="translate(0 0.578125)"/>
      <use xlink:href="#DejaVuSans-62" transform="translate(68.408203 0.578125)"/>
      <use xlink:href="#DejaVuSans-73" transform="translate(131.884766 0.578125)"/>
      <use xlink:href="#DejaVuSans-6f" transform="translate(183.984375 0.578125)"/>
      <use xlink:href="#DejaVuSans-6c" transform="translate(245.166016 0.578125)"/>
      <use xlink:href="#DejaVuSans-75" transform="translate(272.949219 0.578125)"/>
      <use xlink:href="#DejaVuSans-74" transform="translate(336.328125 0.578125)"/>
      <use xlink:href="#DejaVuSans-65" transform="translate(375.537109 0.578125)"/>
      <use xlink:href="#DejaVuSans-20" transform="translate(437.060547 0.578125)"/>
      <use xlink:href="#DejaVuSans-65" transform="translate(468.847656 0.578125)"/>
      <use xlink:href="#DejaVuSans-72" transform="translate(530.371094 0.578125)"/>
      <use xlink:href="#DejaVuSans-72" transform="translate(571.484375 0.578125)"/>
      <use xlink:href="#DejaVuSans-6f" transform="translate(612.597656 0.578125)"/>
      <use xlink:href="#DejaVuSans-72" transform="translate(673.779297 0.578125)"/>
      <use xlink:href="#DejaVuSans-20" transform="translate(714.892578 0.578125)"/>
      <use xlink:href="#DejaVuSans-7c" transform="translate(746.679688 0.578125)"/>
      <use xlink:href="#DejaVuSans-Oblique-49" transform="translate(780.371094 0.578125)"/>
      <use xlink:href="#DejaVuSans-302" transform="translate(853.624609 -7.08125) scale(0.7)"/>
      <use xlink:href="#DejaVuSans-Oblique-70" transform="translate(809.863281 -15.828125) scale(0.7)"/>
      <use xlink:href="#DejaVuSans-28" transform="translate(857.03125 0.578125)"/>
      <use xlink:href="#DejaVuSans-Oblique-66" transform="translate(896.044922 0.578125)"/>
      <use xlink:href="#DejaVuSans-29" transform="translate(931.25 0.578125)"/>
      <use xlink:href="#DejaVuSans-2212" transform="translate(989.746094 0.578125)"/>
      <use xlink:href="#DejaVuSans-Oblique-49" transform="translate(1093.017578 0.578125)"/>
      <use xlink:href="#DejaVuSans-Oblique-70" transform="translate(1122.509766 -15.828125) scale(0.7)"/>
      <use xlink:href="#DejaVuSans-28" transform="translate(1169.677734 0.578125)"/>
      <use xlink:href="#DejaVuSans-Oblique-66" transform="translate(1208.691406 0.578125)"/>
      <use xlink:href="#DejaVuSans-29" transform="translate(1243.896484 0.578125)"/>
      <use xlink:href="#DejaVuSans-7c" transform="translate(1282.910156 0.578125)"/>
     </g>
    </g>
   </g>
   <g id="line2d_33">
    <path d="M 57.628125 255.338658 
L 947.492125 255.338658 
" clip-path="url(#p0e15f2b757)" style="fill: none; stroke-dasharray: 3.7,1.6; stroke-dashoffset: 0; stroke: #2ca02c"/>
   </g>
   <g id="line2d_34">
    <path d="M 57.628125 205.759821 
L 947.492125 205.759821 
" clip-path="url(#p0e15f2b757)" style="fill: none; stroke-dasharray: 3.7,1.6; stroke-dashoffset: 0; stroke: #1f77b4"/>
   </g>
   <g id="line2d_35">
    <path d="M 57.628125 106.602148 
L 947.492125 106.602148 
" clip-path="url(#p0e15f2b757)" style="fill: none; stroke-dasharray: 3.7,1.6; stroke-dashoffset: 0; stroke: #9467bd"/>
   </g>
   <g id="patch_23">
    <path d="M 57.628125 304.917495 
L 57.628125 22.318125 
" style="fill: none; stroke: #000000; stroke-width: 0.8; stroke-linejoin: miter; stroke-linecap: square"/>
   </g>
   <g id="patch_24">
    <path d="M 947.492125 304.917495 
L 947.492125 22.318125 
" style="fill: none; stroke: #000000; stroke-width: 0.8; stroke-linejoin: miter; stroke-linecap: square"/>
   </g>
   <g id="patch_25">
    <path d="M 57.628125 304.917495 
L 947.492125 304.917495 
" style="fill: none; stroke: #000000; stroke-width: 0.8; stroke-linejoin: miter; stroke-linecap: square"/>
   </g>
   <g id="patch_26">
    <path d="M 57.628125 22.318125 
L 947.492125 22.318125 
" style="fill: none; stroke: #000000; stroke-width: 0.8; stroke-linejoin: miter; stroke-linecap: square"/>
   </g>
   <g id="text_28">
    <!-- Phase 7 Final Quantity-of-Interest Classification -->
    <g transform="translate(360.836375 16.318125) scale(0.12 -0.12)">
     <defs>
      <path id="DejaVuSans-50" d="M 1259 4147 
L 1259 2394 
L 2053 2394 
Q 2494 2394 2734 2622 
Q 2975 2850 2975 3272 
Q 2975 3691 2734 3919 
Q 2494 4147 2053 4147 
L 1259 4147 
z
M 628 4666 
L 2053 4666 
Q 2838 4666 3239 4311 
Q 3641 3956 3641 3272 
Q 3641 2581 3239 2228 
Q 2838 1875 2053 1875 
L 1259 1875 
L 1259 0 
L 628 0 
L 628 4666 
z
" transform="scale(0.015625)"/>
      <path id="DejaVuSans-37" d="M 525 4666 
L 3525 4666 
L 3525 4397 
L 1831 0 
L 1172 0 
L 2766 4134 
L 525 4134 
L 525 4666 
z
" transform="scale(0.015625)"/>
      <path id="DejaVuSans-46" d="M 628 4666 
L 3309 4666 
L 3309 4134 
L 1259 4134 
L 1259 2759 
L 3109 2759 
L 3109 2228 
L 1259 2228 
L 1259 0 
L 628 0 
L 628 4666 
z
" transform="scale(0.015625)"/>
      <path id="DejaVuSans-51" d="M 2522 4238 
Q 1834 4238 1429 3725 
Q 1025 3213 1025 2328 
Q 1025 1447 1429 934 
Q 1834 422 2522 422 
Q 3209 422 3611 934 
Q 4013 1447 4013 2328 
Q 4013 3213 3611 3725 
Q 3209 4238 2522 4238 
z
M 3406 84 
L 4238 -825 
L 3475 -825 
L 2784 -78 
Q 2681 -84 2626 -87 
Q 2572 -91 2522 -91 
Q 1538 -91 948 567 
Q 359 1225 359 2328 
Q 359 3434 948 4092 
Q 1538 4750 2522 4750 
Q 3503 4750 4090 4092 
Q 4678 3434 4678 2328 
Q 4678 1516 4351 937 
Q 4025 359 3406 84 
z
" transform="scale(0.015625)"/>
      <path id="DejaVuSans-79" d="M 2059 -325 
Q 1816 -950 1584 -1140 
Q 1353 -1331 966 -1331 
L 506 -1331 
L 506 -850 
L 844 -850 
Q 1081 -850 1212 -737 
Q 1344 -625 1503 -206 
L 1606 56 
L 191 3500 
L 800 3500 
L 1894 763 
L 2988 3500 
L 3597 3500 
L 2059 -325 
z
" transform="scale(0.015625)"/>
      <path id="DejaVuSans-2d" d="M 313 2009 
L 1997 2009 
L 1997 1497 
L 313 1497 
L 313 2009 
z
" transform="scale(0.015625)"/>
      <path id="DejaVuSans-49" d="M 628 4666 
L 1259 4666 
L 1259 0 
L 628 0 
L 628 4666 
z
" transform="scale(0.015625)"/>
      <path id="DejaVuSans-43" d="M 4122 4306 
L 4122 3641 
Q 3803 3938 3442 4084 
Q 3081 4231 2675 4231 
Q 1875 4231 1450 3742 
Q 1025 3253 1025 2328 
Q 1025 1406 1450 917 
Q 1875 428 2675 428 
Q 3081 428 3442 575 
Q 3803 722 4122 1019 
L 4122 359 
Q 3791 134 3420 21 
Q 3050 -91 2638 -91 
Q 1578 -91 968 557 
Q 359 1206 359 2328 
Q 359 3453 968 4101 
Q 1578 4750 2638 4750 
Q 3056 4750 3426 4639 
Q 3797 4528 4122 4306 
z
" transform="scale(0.015625)"/>
     </defs>
     <use xlink:href="#DejaVuSans-50"/>
     <use xlink:href="#DejaVuSans-68" transform="translate(60.302734 0)"/>
     <use xlink:href="#DejaVuSans-61" transform="translate(123.681641 0)"/>
     <use xlink:href="#DejaVuSans-73" transform="translate(184.960938 0)"/>
     <use xlink:href="#DejaVuSans-65" transform="translate(237.060547 0)"/>
     <use xlink:href="#DejaVuSans-20" transform="translate(298.583984 0)"/>
     <use xlink:href="#DejaVuSans-37" transform="translate(330.371094 0)"/>
     <use xlink:href="#DejaVuSans-20" transform="translate(393.994141 0)"/>
     <use xlink:href="#DejaVuSans-46" transform="translate(425.78125 0)"/>
     <use xlink:href="#DejaVuSans-69" transform="translate(476.050781 0)"/>
     <use xlink:href="#DejaVuSans-6e" transform="translate(503.833984 0)"/>
     <use xlink:href="#DejaVuSans-61" transform="translate(567.212891 0)"/>
     <use xlink:href="#DejaVuSans-6c" transform="translate(628.492188 0)"/>
     <use xlink:href="#DejaVuSans-20" transform="translate(656.275391 0)"/>
     <use xlink:href="#DejaVuSans-51" transform="translate(688.0625 0)"/>
     <use xlink:href="#DejaVuSans-75" transform="translate(766.773438 0)"/>
     <use xlink:href="#DejaVuSans-61" transform="translate(830.152344 0)"/>
     <use xlink:href="#DejaVuSans-6e" transform="translate(891.431641 0)"/>
     <use xlink:href="#DejaVuSans-74" transform="translate(954.810547 0)"/>
     <use xlink:href="#DejaVuSans-69" transform="translate(994.019531 0)"/>
     <use xlink:href="#DejaVuSans-74" transform="translate(1021.802734 0)"/>
     <use xlink:href="#DejaVuSans-79" transform="translate(1061.011719 0)"/>
     <use xlink:href="#DejaVuSans-2d" transform="translate(1118.441406 0)"/>
     <use xlink:href="#DejaVuSans-6f" transform="translate(1156.400391 0)"/>
     <use xlink:href="#DejaVuSans-66" transform="translate(1217.582031 0)"/>
     <use xlink:href="#DejaVuSans-2d" transform="translate(1247.287109 0)"/>
     <use xlink:href="#DejaVuSans-49" transform="translate(1283.371094 0)"/>
     <use xlink:href="#DejaVuSans-6e" transform="translate(1312.863281 0)"/>
     <use xlink:href="#DejaVuSans-74" transform="translate(1376.242188 0)"/>
     <use xlink:href="#DejaVuSans-65" transform="translate(1415.451172 0)"/>
     <use xlink:href="#DejaVuSans-72" transform="translate(1476.974609 0)"/>
     <use xlink:href="#DejaVuSans-65" transform="translate(1515.837891 0)"/>
     <use xlink:href="#DejaVuSans-73" transform="translate(1577.361328 0)"/>
     <use xlink:href="#DejaVuSans-74" transform="translate(1629.460938 0)"/>
     <use xlink:href="#DejaVuSans-20" transform="translate(1668.669922 0)"/>
     <use xlink:href="#DejaVuSans-43" transform="translate(1700.457031 0)"/>
     <use xlink:href="#DejaVuSans-6c" transform="translate(1770.28125 0)"/>
     <use xlink:href="#DejaVuSans-61" transform="translate(1798.064453 0)"/>
     <use xlink:href="#DejaVuSans-73" transform="translate(1859.34375 0)"/>
     <use xlink:href="#DejaVuSans-73" transform="translate(1911.443359 0)"/>
     <use xlink:href="#DejaVuSans-69" transform="translate(1963.542969 0)"/>
     <use xlink:href="#DejaVuSans-66" transform="translate(1991.326172 0)"/>
     <use xlink:href="#DejaVuSans-69" transform="translate(2026.53125 0)"/>
     <use xlink:href="#DejaVuSans-63" transform="translate(2054.314453 0)"/>
     <use xlink:href="#DejaVuSans-61" transform="translate(2109.294922 0)"/>
     <use xlink:href="#DejaVuSans-74" transform="translate(2170.574219 0)"/>
     <use xlink:href="#DejaVuSans-69" transform="translate(2209.783203 0)"/>
     <use xlink:href="#DejaVuSans-6f" transform="translate(2237.566406 0)"/>
     <use xlink:href="#DejaVuSans-6e" transform="translate(2298.748047 0)"/>
    </g>
   </g>
   <g id="legend_1">
    <g id="patch_27">
     <path d="M 66.628125 38.916562 
L 86.628125 38.916562 
L 86.628125 31.916562 
L 66.628125 31.916562 
z
" style="fill: #2ca02c"/>
    </g>
    <g id="text_29">
     <!-- paper-quality -->
     <g transform="translate(94.628125 38.916562) scale(0.1 -0.1)">
      <defs>
       <path id="DejaVuSans-71" d="M 947 1747 
Q 947 1113 1208 752 
Q 1469 391 1925 391 
Q 2381 391 2643 752 
Q 2906 1113 2906 1747 
Q 2906 2381 2643 2742 
Q 2381 3103 1925 3103 
Q 1469 3103 1208 2742 
Q 947 2381 947 1747 
z
M 2906 525 
Q 2725 213 2448 61 
Q 2172 -91 1784 -91 
Q 1150 -91 751 415 
Q 353 922 353 1747 
Q 353 2572 751 3078 
Q 1150 3584 1784 3584 
Q 2172 3584 2448 3432 
Q 2725 3281 2906 2969 
L 2906 3500 
L 3481 3500 
L 3481 -1331 
L 2906 -1331 
L 2906 525 
z
" transform="scale(0.015625)"/>
      </defs>
      <use xlink:href="#DejaVuSans-70"/>
      <use xlink:href="#DejaVuSans-61" transform="translate(63.476562 0)"/>
      <use xlink:href="#DejaVuSans-70" transform="translate(124.755859 0)"/>
      <use xlink:href="#DejaVuSans-65" transform="translate(188.232422 0)"/>
      <use xlink:href="#DejaVuSans-72" transform="translate(249.755859 0)"/>
      <use xlink:href="#DejaVuSans-2d" transform="translate(284.494141 0)"/>
      <use xlink:href="#DejaVuSans-71" transform="translate(320.578125 0)"/>
      <use xlink:href="#DejaVuSans-75" transform="translate(384.054688 0)"/>
      <use xlink:href="#DejaVuSans-61" transform="translate(447.433594 0)"/>
      <use xlink:href="#DejaVuSans-6c" transform="translate(508.712891 0)"/>
      <use xlink:href="#DejaVuSans-69" transform="translate(536.496094 0)"/>
      <use xlink:href="#DejaVuSans-74" transform="translate(564.279297 0)"/>
      <use xlink:href="#DejaVuSans-79" transform="translate(603.488281 0)"/>
     </g>
    </g>
    <g id="patch_28">
     <path d="M 180.896875 38.916562 
L 200.896875 38.916562 
L 200.896875 31.916562 
L 180.896875 31.916562 
z
" style="fill: #ff7f0e"/>
    </g>
    <g id="text_30">
     <!-- bias caveat -->
     <g transform="translate(208.896875 38.916562) scale(0.1 -0.1)">
      <defs>
       <path id="DejaVuSans-76" d="M 191 3500 
L 800 3500 
L 1894 563 
L 2988 3500 
L 3597 3500 
L 2284 0 
L 1503 0 
L 191 3500 
z
" transform="scale(0.015625)"/>
      </defs>
      <use xlink:href="#DejaVuSans-62"/>
      <use xlink:href="#DejaVuSans-69" transform="translate(63.476562 0)"/>
      <use xlink:href="#DejaVuSans-61" transform="translate(91.259766 0)"/>
      <use xlink:href="#DejaVuSans-73" transform="translate(152.539062 0)"/>
      <use xlink:href="#DejaVuSans-20" transform="translate(204.638672 0)"/>
      <use xlink:href="#DejaVuSans-63" transform="translate(236.425781 0)"/>
      <use xlink:href="#DejaVuSans-61" transform="translate(291.40625 0)"/>
      <use xlink:href="#DejaVuSans-76" transform="translate(352.685547 0)"/>
      <use xlink:href="#DejaVuSans-65" transform="translate(411.865234 0)"/>
      <use xlink:href="#DejaVuSans-61" transform="translate(473.388672 0)"/>
      <use xlink:href="#DejaVuSans-74" transform="translate(534.667969 0)"/>
     </g>
    </g>
    <g id="patch_29">
     <path d="M 286.285937 38.916562 
L 306.285937 38.916562 
L 306.285937 31.916562 
L 286.285937 31.916562 
z
" style="fill: #9467bd"/>
    </g>
    <g id="text_31">
     <!-- backend diagnostic -->
     <g transform="translate(314.285937 38.916562) scale(0.1 -0.1)">
      <defs>
       <path id="DejaVuSans-6b" d="M 581 4863 
L 1159 4863 
L 1159 1991 
L 2875 3500 
L 3609 3500 
L 1753 1863 
L 3688 0 
L 2938 0 
L 1159 1709 
L 1159 0 
L 581 0 
L 581 4863 
z
" transform="scale(0.015625)"/>
      </defs>
      <use xlink:href="#DejaVuSans-62"/>
      <use xlink:href="#DejaVuSans-61" transform="translate(63.476562 0)"/>
      <use xlink:href="#DejaVuSans-63" transform="translate(124.755859 0)"/>
      <use xlink:href="#DejaVuSans-6b" transform="translate(179.736328 0)"/>
      <use xlink:href="#DejaVuSans-65" transform="translate(234.021484 0)"/>
      <use xlink:href="#DejaVuSans-6e" transform="translate(295.544922 0)"/>
      <use xlink:href="#DejaVuSans-64" transform="translate(358.923828 0)"/>
      <use xlink:href="#DejaVuSans-20" transform="translate(422.400391 0)"/>
      <use xlink:href="#DejaVuSans-64" transform="translate(454.1875 0)"/>
      <use xlink:href="#DejaVuSans-69" transform="translate(517.664062 0)"/>
      <use xlink:href="#DejaVuSans-61" transform="translate(545.447266 0)"/>
      <use xlink:href="#DejaVuSans-67" transform="translate(606.726562 0)"/>
      <use xlink:href="#DejaVuSans-6e" transform="translate(670.203125 0)"/>
      <use xlink:href="#DejaVuSans-6f" transform="translate(733.582031 0)"/>
      <use xlink:href="#DejaVuSans-73" transform="translate(794.763672 0)"/>
      <use xlink:href="#DejaVuSans-74" transform="translate(846.863281 0)"/>
      <use xlink:href="#DejaVuSans-69" transform="translate(886.072266 0)"/>
      <use xlink:href="#DejaVuSans-63" transform="translate(913.855469 0)"/>
     </g>
    </g>
   </g>
  </g>
 </g>
 <defs>
  <clipPath id="p0e15f2b757">
   <rect x="57.628125" y="22.318125" width="889.864" height="282.59937"/>
  </clipPath>
 </defs>
</svg>
